<?xml version="1.0" standalone="no"?>
<!DOCTYPE svg PUBLIC "-//W3C//DTD SVG 20010904//EN"
 "http://www.w3.org/TR/2001/REC-SVG-20010904/DTD/svg10.dtd">
<svg version="1.0" xmlns="http://www.w3.org/2000/svg"
 width="414.000000pt" height="313.000000pt" viewBox="0 0 414.000000 313.000000"
 preserveAspectRatio="xMidYMid meet">

<g transform="translate(0.000000,313.000000) scale(0.100000,-0.100000)"
fill="#000000" stroke="none">
<path d="M3 3117 c2 -7 13 -13 25 -15 12 -2 22 -7 22 -12 0 -15 38 -32 45 -20
4 6 1 9 -6 8 -6 -2 -13 2 -16 9 -3 7 3 9 18 6 12 -3 24 -14 27 -25 3 -14 7
-16 18 -7 12 10 13 9 8 -5 -7 -19 -12 -19 -86 -2 l-58 14 0 -109 c0 -73 4
-109 11 -109 7 0 8 -7 4 -17 -4 -10 -8 -30 -10 -45 -3 -20 0 -26 11 -21 7 3
14 0 14 -6 0 -6 -7 -11 -15 -11 -18 0 -20 -16 -2 -23 9 -4 9 -6 0 -6 -7 -1
-13 -6 -13 -12 0 -6 9 -8 22 -3 20 6 21 5 9 -10 -12 -14 -12 -16 3 -10 9 4 16
3 15 -2 -4 -21 2 -35 11 -29 7 4 6 13 -1 26 -5 11 -8 25 -5 32 2 7 5 4 5 -5 1
-10 6 -18 11 -18 6 0 10 -8 10 -17 0 -10 10 2 22 26 12 25 24 39 26 32 2 -6
-3 -27 -12 -45 -19 -41 -20 -49 -4 -43 19 6 48 -11 48 -29 0 -14 -2 -14 -16 0
-13 13 -39 20 -65 18 -3 0 -21 3 -41 7 l-36 8 -1 -133 c-1 -78 3 -135 9 -139
6 -3 7 1 4 9 -3 9 -2 16 3 16 13 0 10 -65 -5 -82 -14 -18 -15 -191 -1 -182 5
3 9 1 9 -5 0 -5 -4 -12 -9 -16 -13 -8 -10 -65 3 -65 6 0 5 -4 -3 -9 -9 -6 -10
-11 -3 -15 6 -4 8 -14 5 -24 -6 -16 -6 -16 10 0 9 9 17 28 17 43 0 16 4 24 10
20 6 -4 8 -16 4 -27 -4 -14 -2 -18 5 -14 6 4 11 1 11 -8 0 -9 -6 -13 -15 -10
-12 5 -12 1 1 -26 11 -22 22 -30 34 -27 13 3 16 0 13 -14 -7 -25 -13 -24 -53
11 -19 16 -39 29 -43 30 -14 0 -3 -43 12 -48 8 -3 11 0 7 7 -4 6 21 -7 56 -29
48 -30 64 -36 66 -25 4 16 22 21 22 6 0 -6 9 -9 21 -8 16 1 19 6 14 24 -6 24
9 32 19 11 3 -7 3 1 -1 17 -7 35 0 32 21 -10 11 -20 16 -24 16 -12 0 9 6 17
14 17 20 0 29 -30 14 -47 -9 -11 -9 -19 -1 -32 7 -12 8 -59 2 -157 -12 -173
-10 -167 -32 -138 -14 19 -15 23 -2 18 8 -3 15 -2 15 4 0 6 -6 13 -12 15 -9 4
-8 6 2 6 11 1 9 5 -6 14 -106 62 -134 80 -154 102 -28 30 -35 66 -11 57 10 -3
8 4 -8 21 -13 15 -29 23 -35 20 -6 -4 -6 0 1 9 7 8 10 18 6 21 -3 4 -1 7 5 7
15 0 24 -18 11 -22 -7 -2 -4 -10 7 -18 16 -14 17 -13 11 3 -4 10 -2 17 5 17 7
0 -8 20 -32 45 -24 25 -48 45 -52 45 -4 0 -8 -31 -8 -68 0 -57 4 -74 25 -102
14 -18 22 -36 19 -39 -3 -3 -11 2 -18 12 -7 9 -15 17 -18 17 -9 0 -8 -100 1
-118 5 -9 12 -25 15 -35 10 -31 25 -9 16 22 -8 28 -5 41 10 41 4 0 20 -18 34
-41 15 -22 30 -38 33 -35 3 3 -2 17 -12 32 -9 15 -12 23 -6 20 24 -15 9 13
-17 33 -15 11 -22 21 -15 21 7 0 29 -18 50 -41 21 -23 50 -47 65 -55 15 -8 44
-28 63 -45 l35 -31 0 -187 c0 -102 -3 -242 -6 -311 l-7 -125 -133 3 -134 3 0
-35 c0 -21 5 -36 12 -36 9 0 9 -3 0 -12 -7 -7 -12 -19 -12 -27 0 -12 3 -11 18
2 17 16 64 25 49 10 -10 -9 13 -33 32 -32 10 0 11 2 4 6 -23 9 -13 20 14 17
16 -2 22 -1 15 2 -17 8 -5 24 13 18 8 -4 12 -10 9 -15 -8 -14 3 -11 38 11 21
13 36 16 44 9 8 -6 11 -3 11 13 1 41 3 48 14 48 8 0 8 -4 0 -14 -7 -9 -8 -17
-2 -20 5 -3 7 -15 4 -26 -4 -15 -11 -18 -29 -14 -13 3 -24 2 -24 -4 0 -5 -7
-9 -16 -8 -9 0 -19 -5 -21 -12 -3 -8 1 -10 11 -6 9 3 23 1 31 -6 9 -7 18 -10
22 -6 3 3 1 6 -6 6 -7 0 -10 4 -6 10 11 18 37 -2 30 -24 -3 -11 -8 -48 -11
-81 -3 -33 -10 -64 -14 -68 -4 -5 -5 -27 -2 -49 l5 -41 -31 6 c-19 4 -32 2
-32 -3 0 -6 5 -10 11 -10 5 0 7 -4 4 -10 -9 -14 9 -12 24 3 10 10 11 -2 5 -63
-4 -41 -10 -86 -14 -99 -8 -32 -31 -41 -24 -9 3 13 8 33 11 46 4 18 2 21 -12
15 -13 -4 -16 -3 -11 5 4 7 14 12 22 12 14 0 20 35 6 44 -4 2 -25 7 -47 10
l-40 6 37 -17 c42 -18 52 -39 14 -29 -30 7 -43 -9 -19 -23 10 -6 13 -11 6 -11
-6 0 -18 -2 -26 -5 -9 -4 -13 1 -13 17 1 18 -5 23 -24 24 -50 1 -61 4 -55 14
3 6 0 10 -7 10 -8 0 -13 -13 -14 -30 -1 -17 4 -30 10 -29 31 4 37 -1 22 -16
-17 -17 -30 -20 -21 -5 3 6 1 10 -5 10 -7 0 -10 -41 -9 -130 1 -133 8 -152 39
-115 7 8 17 12 24 8 6 -4 16 -8 21 -9 6 0 19 -2 30 -3 16 -2 14 -5 -10 -13
-21 -8 -30 -8 -33 0 -5 15 -32 16 -32 2 0 -5 7 -10 16 -10 8 0 12 -5 9 -10 -4
-7 3 -9 22 -5 27 6 27 6 9 -9 -25 -20 -40 -20 -60 -1 -8 8 -19 15 -25 15 -15
0 -14 -17 2 -23 9 -4 9 -6 0 -6 -15 -1 -18 -61 -3 -61 6 0 10 5 10 10 0 6 9
10 21 10 11 0 18 -4 14 -10 -4 -6 108 -9 305 -9 307 0 310 0 326 22 l16 22 -5
-23 c-5 -22 -3 -23 46 -20 35 2 51 7 49 16 -1 6 3 12 9 12 6 0 9 -7 5 -15 -4
-12 6 -15 59 -15 35 0 67 4 70 10 3 5 11 10 16 10 6 0 8 -4 4 -9 -3 -6 119
-10 306 -10 264 -1 313 1 325 14 17 17 44 20 44 6 0 -5 -10 -12 -22 -14 -13
-2 14 -5 59 -6 45 0 93 3 107 9 17 6 26 6 26 -1 0 -12 788 -11 796 2 3 5 10 9
15 9 6 0 7 -4 4 -10 -4 -6 164 -10 489 -9 388 0 497 3 503 13 8 13 73 39 73
30 0 -3 -13 -10 -30 -15 -17 -6 -30 -14 -30 -17 0 -4 38 -8 85 -10 52 -1 85 2
85 8 0 5 8 10 18 10 14 0 15 -2 2 -10 -11 -7 -3 -10 30 -10 33 0 41 3 30 10
-9 6 -10 10 -3 10 6 0 15 -4 18 -10 3 -5 17 -10 31 -10 13 0 24 5 24 10 0 6
-8 10 -17 10 -12 0 -9 5 11 15 32 17 50 19 41 6 -3 -5 -1 -12 5 -16 6 -4 8
-10 6 -14 -3 -3 11 -6 30 -6 24 1 43 10 62 30 18 18 21 26 10 22 -9 -3 -18 -1
-20 5 -3 8 -10 7 -26 -1 -12 -6 -22 -8 -22 -3 0 16 29 35 44 29 14 -6 56 18
56 32 0 12 -49 20 -56 10 -8 -13 -52 -11 -56 2 -3 8 -18 4 -46 -10 -49 -25
-72 -27 -72 -6 0 9 6 15 13 13 6 -1 32 6 57 17 25 10 74 28 110 40 76 26 95
55 35 55 -22 0 -34 4 -30 10 3 6 19 10 36 10 16 0 29 5 29 10 0 6 -11 10 -24
10 -35 0 -42 18 -9 22 18 2 29 10 31 22 4 17 3 18 -19 2 -13 -9 -33 -16 -44
-15 -14 0 -11 4 12 12 40 15 65 37 41 37 -9 0 -20 -4 -23 -10 -10 -16 -25 -12
-19 5 4 8 17 18 31 21 20 5 24 12 21 38 -2 17 -7 29 -13 26 -5 -2 -9 -10 -7
-16 2 -9 -10 -11 -38 -7 -38 5 -57 -9 -27 -20 9 -4 8 -8 -3 -16 -21 -15 -30
-13 -23 5 4 12 0 14 -23 8 -16 -4 -33 -11 -39 -15 -5 -5 -25 -8 -45 -7 -35 1
-35 1 -4 5 18 2 40 13 50 24 9 10 25 19 35 19 10 0 21 5 25 12 5 8 2 9 -9 5
-9 -3 -19 -2 -22 3 -3 5 5 12 17 16 13 4 24 2 26 -5 2 -6 17 -11 33 -11 26 0
34 9 30 33 -2 12 17 8 22 -5 4 -8 6 -7 6 3 1 16 -18 29 -40 29 -6 0 -9 -8 -7
-17 2 -11 -4 -18 -17 -20 -11 -1 -14 0 -7 3 25 11 11 23 -20 17 -22 -4 -29 -3
-24 5 4 7 14 12 21 12 20 0 105 42 105 52 0 13 -34 9 -66 -6 -16 -8 -42 -17
-59 -21 l-30 -6 25 14 c14 8 45 21 70 28 47 13 75 29 50 29 -8 0 -51 -11 -95
-25 -92 -29 -105 -30 -105 -11 0 21 -27 27 -35 8 -5 -13 -8 -14 -14 -3 -6 9
-14 10 -22 5 -8 -5 -23 -10 -33 -11 -11 -2 -25 -8 -32 -14 -9 -7 -21 -6 -40 4
-22 12 -24 15 -10 20 10 4 15 3 11 -3 -3 -6 3 -10 14 -10 12 0 26 8 33 19 8
13 20 17 39 14 16 -2 39 3 53 12 23 15 25 15 31 -5 5 -15 12 -19 28 -16 12 3
16 3 10 0 -7 -3 -13 -10 -13 -16 0 -5 14 0 31 12 16 12 27 25 24 28 -3 4 -10
0 -15 -8 -5 -8 -12 -11 -16 -7 -9 9 15 37 32 37 8 0 14 -4 14 -10 0 -5 5 -10
11 -10 6 0 9 6 6 14 -6 15 65 39 89 29 8 -3 12 3 11 16 -1 24 -8 26 -25 9 -7
-7 -12 -9 -12 -6 0 4 -14 3 -30 -2 -19 -5 -28 -5 -25 1 4 5 1 9 -4 9 -6 0 -11
-4 -11 -9 0 -15 -32 -22 -125 -27 -49 -3 -102 -9 -117 -15 -15 -6 -40 -8 -55
-5 -18 4 -23 3 -15 -2 10 -7 8 -11 -9 -15 -15 -4 -27 0 -35 11 -12 15 -13 16
-14 1 0 -28 -30 -32 -100 -14 l-25 6 25 -14 24 -15 -44 -9 c-34 -7 -47 -6 -53
4 -10 16 -43 17 -53 2 -5 -8 -9 -7 -15 4 -12 20 -2 44 16 44 16 0 20 -12 8
-20 -5 -2 -2 -2 5 0 7 1 27 -4 43 -13 17 -8 36 -13 42 -10 8 3 8 5 -1 5 -7 1
-10 6 -7 11 3 5 -3 10 -15 10 -12 0 -31 5 -42 11 -17 9 -18 13 -7 21 10 6 6 7
-11 3 -19 -6 -22 -5 -13 5 6 7 26 16 45 20 30 8 31 9 11 15 -29 9 -30 20 -2
22 14 1 23 -7 31 -28 5 -16 14 -29 19 -29 4 0 6 6 3 14 -4 11 0 13 17 9 16 -4
20 -2 17 8 -3 8 -10 14 -15 14 -6 0 -15 4 -20 9 -5 5 4 6 21 2 19 -5 32 -3 38
6 8 10 9 9 5 -4 -3 -9 1 -19 9 -22 8 -3 14 -1 14 4 0 16 40 11 46 -5 4 -8 10
-12 15 -9 5 3 7 10 4 15 -4 5 3 9 14 9 12 0 20 -5 18 -11 -1 -6 4 -14 11 -16
6 -3 12 3 12 12 0 14 6 16 29 12 18 -4 31 -2 33 5 3 7 24 13 49 13 25 1 51 5
58 9 7 4 14 6 17 3 2 -2 -9 -11 -25 -19 l-30 -14 52 0 c29 0 44 2 35 4 -22 4
-23 28 -2 36 26 10 29 7 8 -10 -18 -15 -18 -15 5 -8 14 4 21 2 17 -4 -3 -5 1
-15 9 -22 10 -9 15 -9 15 -1 0 6 -5 11 -11 11 -5 0 -7 5 -4 10 4 6 16 8 27 4
14 -4 18 -2 14 5 -4 6 -3 11 3 11 5 0 12 -6 14 -12 4 -10 8 -10 14 -2 4 6 19
14 33 18 19 5 15 1 -12 -16 -50 -31 -49 -43 2 -17 41 22 44 27 33 68 -6 23 -7
23 -14 5 -7 -16 -8 -17 -8 -1 -1 22 -17 22 -25 1 -6 -15 -8 -15 -24 -2 -9 9
-24 18 -32 21 -8 4 -1 5 15 4 17 -1 29 3 28 9 -1 6 11 9 30 7 l32 -3 -29 14
c-19 9 -24 15 -15 18 8 3 10 9 6 14 -4 4 -20 3 -35 -2 -29 -11 -52 -8 -52 7 0
5 6 9 14 9 9 0 12 8 8 25 -4 22 -1 25 26 25 17 0 38 3 47 6 15 6 17 1 14 -41
-3 -32 0 -50 9 -52 9 -4 12 82 12 406 0 325 -3 409 -13 406 -9 -4 -12 11 -11
60 1 36 0 65 -1 65 -1 0 -17 -8 -35 -17 -24 -12 -35 -13 -38 -5 -2 7 -13 12
-25 12 -18 0 -19 2 -7 10 12 8 13 14 2 42 -10 27 -10 35 1 43 20 14 25 36 16
67 -6 21 -3 27 12 31 10 3 19 1 19 -4 0 -5 5 -9 10 -9 6 0 10 7 10 15 0 8 8
15 18 15 15 1 15 2 -3 16 -12 10 -15 18 -9 20 20 8 4 54 -20 54 -18 1 -19 2
-4 10 16 10 16 15 3 58 -8 25 -9 26 -38 11 -18 -9 -20 -9 -9 2 24 25 12 32
-15 8 -14 -13 -23 -19 -20 -12 12 19 -4 45 -24 40 -11 -3 -17 -1 -13 4 3 5 -4
9 -14 9 -11 0 -22 -7 -26 -15 -9 -23 -36 -18 -37 8 -1 16 -2 18 -6 5 -2 -10
-9 -18 -15 -18 -5 0 -7 -7 -4 -16 4 -10 -1 -22 -11 -30 -17 -13 -17 -13 0 -14
30 0 18 -17 -13 -17 -35 0 -36 2 -10 45 16 26 17 32 5 32 -9 0 -15 9 -15 24 0
17 -7 25 -25 28 -20 4 -25 1 -25 -16 -1 -20 -1 -20 -11 -2 -11 17 -12 17 -23
-5 -8 -15 -10 -31 -4 -41 6 -14 5 -16 -7 -12 -24 10 -18 -11 10 -32 24 -18 36
-42 15 -29 -5 3 -10 2 -10 -4 0 -5 -14 -8 -31 -6 -23 3 -29 0 -25 -11 3 -9 -1
-14 -12 -14 -11 0 -13 -3 -6 -8 6 -4 14 -17 18 -29 5 -15 15 -23 29 -23 18 0
19 2 7 10 -17 11 -8 23 20 25 14 1 19 -4 17 -19 -1 -15 3 -21 16 -20 9 1 17
-3 17 -8 0 -6 6 -6 14 1 18 15 30 -1 21 -28 -3 -11 -1 -22 4 -26 7 -4 7 -11
-2 -19 -13 -15 -27 -12 -27 5 0 6 5 7 10 4 6 -3 10 -4 10 -1 0 3 -9 10 -20 16
-17 9 -24 6 -45 -17 -13 -15 -25 -37 -25 -49 0 -32 -13 -37 -27 -12 -7 13 -12
17 -13 10 0 -7 -4 -10 -10 -7 -5 3 -10 1 -10 -4 0 -6 -7 -11 -16 -11 -11 0
-14 -5 -10 -16 3 -9 6 -20 6 -25 0 -4 6 -6 13 -3 7 2 23 -7 35 -21 l22 -25
-26 0 c-17 0 -24 -4 -21 -13 3 -9 -7 -12 -34 -12 -45 0 -58 -10 -41 -33 7 -9
15 -24 19 -32 10 -23 27 -37 38 -33 7 2 9 -13 7 -37 -2 -22 -8 -40 -13 -40
-13 0 -11 -47 1 -55 7 -4 8 -24 4 -53 -4 -26 -8 -56 -9 -67 -1 -11 -3 -25 -4
-31 0 -7 -8 -14 -16 -18 -13 -5 -14 -2 -1 22 19 37 0 68 -35 57 -30 -10 -47
-27 -41 -43 5 -17 -17 -44 -30 -36 -6 4 -5 10 3 15 11 7 9 9 -5 9 -11 0 -28 8
-38 17 -16 14 -24 15 -49 6 -17 -7 -29 -7 -29 -2 0 5 7 12 15 15 20 8 27 37
18 71 -7 27 -8 27 -13 -12 l-6 -40 -14 45 c-7 25 -17 49 -22 54 -11 14 -10 73
2 81 5 3 7 12 3 20 -3 8 -2 15 1 15 4 0 11 -12 17 -26 5 -15 12 -24 16 -21 3
4 21 -3 40 -14 19 -12 36 -19 39 -17 8 9 -8 37 -24 43 -10 3 -28 15 -42 26
-20 17 -21 20 -5 14 11 -4 27 -8 35 -8 8 0 21 -6 28 -14 24 -24 31 -14 26 43
-7 89 -27 111 -70 80 -16 -13 -21 -13 -36 0 -11 10 -18 12 -23 5 -9 -16 -35
-13 -35 4 0 8 -14 28 -30 45 -34 35 -26 36 -95 -15 -19 -13 -21 -13 -21 5 0
11 6 20 13 20 18 0 16 28 -3 48 -15 15 -18 14 -40 -12 -13 -15 -29 -24 -34
-21 -7 4 -9 -3 -6 -22 2 -15 5 -34 5 -40 1 -7 8 -13 16 -13 8 0 15 -7 15 -15
0 -20 -6 -19 -30 7 -11 12 -20 31 -20 42 0 12 -4 27 -9 34 -6 11 -11 10 -25
-3 -16 -16 -16 -18 1 -30 10 -7 15 -17 11 -21 -5 -4 -16 0 -27 10 -16 15 -19
15 -24 1 -9 -21 2 -45 18 -39 7 3 15 -2 18 -10 4 -10 1 -16 -8 -16 -10 0 -15
-9 -14 -27 1 -17 3 -21 6 -10 6 23 33 22 33 -2 0 -11 4 -22 9 -25 5 -3 12 -26
15 -50 4 -24 14 -50 21 -56 18 -15 22 -196 4 -185 -6 4 -10 24 -8 44 3 53 1
61 -17 61 -8 0 -13 4 -10 8 2 4 1 14 -3 21 -7 10 -13 10 -30 2 -17 -10 -21 -9
-21 3 0 8 -6 21 -13 28 -28 28 -65 84 -64 93 1 6 -11 12 -28 13 -16 2 -35 8
-42 13 -7 7 -14 6 -18 -1 -5 -8 -11 -7 -23 2 -14 12 -15 8 -9 -30 5 -43 5 -44
-21 -37 l-27 7 23 -25 c19 -20 21 -28 12 -51 l-10 -27 -26 24 c-17 16 -24 30
-19 37 6 10 11 9 22 -5 12 -18 13 -18 13 1 0 20 -17 44 -31 44 -4 0 -10 -13
-14 -29 -5 -22 -11 -28 -24 -24 -11 3 -22 0 -25 -6 -4 -6 -3 -11 1 -11 5 0 9
-8 10 -17 3 -43 11 -58 31 -61 17 -3 22 2 22 17 0 13 6 21 18 21 13 0 14 -2 3
-9 -11 -7 -10 -11 5 -20 16 -9 16 -10 3 -11 -22 0 -29 -32 -17 -77 12 -42 13
-90 3 -141 -5 -29 -9 -32 -33 -26 -41 10 -47 17 -24 25 25 9 30 49 7 49 -8 0
-15 4 -15 10 0 5 -11 12 -24 16 -15 3 -33 23 -51 55 -14 27 -31 47 -36 44 -5
-4 -9 -2 -9 4 0 6 -20 9 -49 7 -43 -2 -50 0 -56 18 -5 17 -8 18 -13 6 -4 -8
-12 -16 -17 -17 -6 -1 -23 -5 -38 -8 -37 -10 -37 21 0 38 34 15 41 37 13 44
-11 3 -20 9 -20 14 0 11 -59 8 -66 -3 -3 -5 -10 -6 -15 -3 -5 4 -9 -5 -9 -19
0 -14 -4 -26 -10 -26 -5 0 -10 7 -10 15 0 8 -4 15 -10 15 -5 0 -10 -15 -10
-34 0 -22 -6 -36 -16 -40 -23 -9 -24 -8 -34 19 -8 20 -16 25 -44 25 -25 0 -34
4 -30 13 3 10 -4 12 -30 9 -28 -3 -37 1 -52 23 -16 24 -22 26 -58 21 -36 -5
-39 -4 -23 8 13 10 15 16 5 23 -16 13 -88 22 -88 12 0 -18 -33 -39 -54 -33
-17 4 -30 -3 -52 -28 -16 -18 -48 -46 -72 -62 l-43 -29 -15 22 c-15 21 -17 21
-30 4 -7 -10 -14 -26 -14 -36 0 -12 -30 -32 -102 -68 -57 -27 -107 -54 -112
-59 -7 -7 70 -10 213 -10 122 0 220 -4 217 -8 -3 -5 -55 -7 -116 -6 -73 2
-110 0 -110 -8 0 -5 6 -8 14 -5 8 3 25 -4 38 -16 29 -27 57 -63 41 -54 -6 4
-14 3 -18 -3 -3 -5 -1 -10 6 -10 7 0 9 -3 6 -7 -4 -3 -1 -13 6 -21 8 -11 9
-14 0 -9 -8 5 -11 0 -10 -13 1 -11 7 -20 15 -20 7 0 10 5 7 10 -3 6 -1 10 4
10 15 0 14 27 -1 33 -8 3 -3 13 15 27 20 16 27 29 23 44 -4 19 -1 21 34 21 22
1 40 -3 40 -8 0 -5 6 -5 13 1 23 18 57 -4 57 -38 0 -27 -3 -30 -30 -30 -26 0
-30 4 -31 28 -1 15 -6 1 -11 -30 -10 -58 -27 -78 -29 -35 -1 18 -2 18 -6 4 -6
-25 5 -69 16 -62 5 3 7 -4 4 -15 -4 -14 0 -20 11 -20 21 0 10 -27 -14 -33 -10
-3 -22 -1 -27 3 -4 4 -81 10 -170 13 -149 5 -164 4 -186 -14 -22 -17 -55 -19
-373 -28 -192 -6 -412 -13 -488 -16 l-139 -5 7 92 c10 134 49 383 96 608 22
107 40 198 40 203 0 18 17 4 29 -25 l14 -33 4 27 c2 15 -1 37 -7 50 -11 22
-10 22 4 4 19 -24 56 -28 64 -8 3 8 1 28 -5 43 -10 25 -9 27 7 17 10 -7 17
-19 15 -28 -2 -9 1 -23 6 -31 8 -12 10 -12 8 1 -1 8 -1 24 0 35 1 15 3 17 10
7 5 -8 17 -12 27 -10 11 2 24 -3 31 -12 11 -13 12 -12 13 8 0 13 4 20 10 17 6
-3 10 -15 10 -26 0 -10 5 -19 10 -19 6 0 10 5 10 10 0 20 16 9 28 -17 l12 -28
-5 26 c-6 34 17 44 41 18 9 -10 19 -17 22 -14 2 2 13 -6 23 -18 16 -19 18 -20
19 -4 0 15 3 16 20 7 11 -6 18 -15 15 -19 -2 -5 8 -17 23 -26 l27 -18 -19 21
c-16 18 -16 22 -4 22 15 0 25 -13 26 -34 0 -13 32 -29 40 -21 4 4 -3 14 -15
22 -13 9 -23 20 -23 26 0 5 8 3 18 -6 10 -10 24 -17 30 -17 7 0 12 -5 12 -12
0 -6 3 -8 7 -5 3 4 21 -5 40 -19 39 -30 42 -24 8 20 -30 40 -32 50 -5 36 11
-6 18 -14 16 -19 -3 -4 11 -14 29 -23 l35 -15 -18 22 c-72 94 -100 125 -122
135 -54 23 -84 44 -72 48 7 2 28 -5 47 -16 24 -15 32 -17 28 -6 -7 18 2 18 21
-1 8 -8 29 -18 47 -22 26 -5 31 -3 24 8 -6 11 -4 10 11 -1 19 -16 54 -33 88
-44 31 -10 1 19 -50 49 -24 14 -44 30 -44 36 0 6 4 8 9 4 6 -3 0 16 -12 43
-13 30 -27 47 -34 45 -7 -3 -13 -1 -13 5 0 6 -3 19 -6 29 -5 17 -5 17 9 1 8
-10 17 -15 20 -11 10 10 36 -17 31 -32 -7 -16 26 -56 39 -48 6 3 7 2 4 -4 -4
-5 7 -23 23 -38 29 -27 44 -23 18 4 -11 11 -9 12 7 3 11 -5 23 -10 28 -11 4
-1 8 -1 10 -2 1 0 10 -2 20 -4 10 -2 26 -10 35 -18 10 -8 26 -17 37 -21 16 -5
15 -3 -5 13 -14 11 -22 23 -18 26 4 4 19 -5 33 -19 14 -14 28 -26 30 -26 11 0
-33 60 -63 84 -17 15 -32 34 -32 42 0 20 17 18 29 -3 7 -12 10 -13 11 -5 0 24
-60 72 -90 72 -16 0 -39 11 -56 28 -54 51 -164 142 -173 142 -20 0 -61 51 -61
75 0 34 17 23 30 -18 l10 -32 -5 33 c-6 39 7 35 25 -8 7 -16 17 -30 22 -30 6
0 3 11 -6 25 -17 26 -9 34 13 13 11 -11 12 -7 7 22 -5 30 -3 29 9 -9 20 -61
36 -75 29 -25 -4 29 -3 35 5 24 6 -8 11 -25 11 -37 0 -13 4 -23 9 -23 14 0 19
49 6 60 -6 5 -12 27 -13 47 -1 28 1 34 8 23 5 -8 10 -23 10 -32 0 -10 5 -18
10 -18 6 0 10 -6 10 -14 0 -8 4 -17 9 -21 6 -3 8 10 5 32 -4 31 -3 34 5 16 11
-25 27 -32 17 -8 -3 8 -1 15 4 15 6 0 10 -8 11 -17 0 -16 1 -16 7 -2 6 13 12
10 37 -17 17 -18 31 -39 33 -46 2 -7 8 -19 13 -28 8 -11 9 -7 4 14 -3 15 -8
42 -11 60 l-6 31 21 -25 c21 -25 28 -45 12 -36 -4 3 -6 -6 -3 -20 5 -30 11
-26 18 12 7 40 9 40 28 -7 9 -23 19 -39 22 -37 2 3 0 18 -6 33 -9 25 -9 26 5
15 8 -7 15 -21 15 -31 0 -10 4 -21 10 -24 6 -3 7 1 4 12 -3 10 4 2 15 -17 19
-33 20 -34 22 -10 1 17 3 20 6 8 2 -10 11 -18 18 -18 8 0 23 -13 35 -30 24
-34 47 -41 30 -10 -9 17 -8 20 10 20 12 0 29 -4 39 -9 34 -18 19 18 -18 46
-47 35 -181 166 -175 172 2 2 15 -6 29 -19 32 -30 32 -18 0 24 -14 18 -25 38
-25 44 0 7 -5 12 -12 12 -6 0 -8 3 -5 7 4 3 16 -2 27 -12 18 -17 30 -8 13 9
-5 4 -8 11 -8 16 0 4 -13 20 -28 34 -31 29 -24 34 13 10 20 -12 18 -10 -5 12
l-30 27 28 -6 c32 -9 35 -2 6 13 -15 9 -24 8 -35 -1 -18 -15 -27 -8 -18 14 6
16 40 15 69 -2 6 -3 -1 5 -15 18 -17 16 -19 21 -7 17 9 -3 17 -1 17 4 0 6 -8
10 -17 11 -29 1 -77 10 -82 15 -2 2 22 4 55 4 56 1 58 1 34 15 -14 8 -35 14
-48 15 -13 0 -20 4 -17 10 3 6 -2 10 -12 11 -16 0 -16 1 2 9 17 6 13 9 -20 14
-22 4 -58 11 -80 16 -36 8 -34 9 26 7 65 -3 66 -3 44 15 -17 13 -43 18 -92 19
l-68 2 68 8 c92 10 96 19 11 20 -67 1 -68 1 -25 10 73 14 61 21 -28 18 -82 -4
-84 -4 -88 20 l-3 25 25 -24 c23 -22 25 -22 19 -5 -4 11 -18 32 -32 47 -13 14
-21 31 -18 37 4 6 1 11 -6 11 -8 1 -6 6 6 15 13 10 25 11 42 5 31 -12 33 10 3
28 -12 7 -18 16 -15 19 3 3 21 -6 41 -21 19 -15 35 -22 35 -16 0 6 5 8 10 5 6
-3 10 -1 10 5 0 6 5 8 13 4 8 -5 8 -2 -2 9 -23 29 16 21 43 -8 l23 -25 -2 34
c-1 18 -6 39 -10 46 -6 10 -4 12 9 7 12 -5 16 -3 14 5 -3 7 -24 18 -49 25 -24
7 -52 17 -62 23 -10 6 -26 9 -35 6 -9 -3 -24 -1 -32 4 -12 8 -12 10 2 15 10 4
21 4 27 1 5 -4 12 -2 15 3 4 5 2 13 -4 16 -15 10 -122 -35 -117 -49 3 -6 -7
-12 -21 -13 -14 0 -20 2 -13 6 8 5 2 15 -17 32 -28 25 -29 25 -235 27 -160 1
-206 -2 -200 -11 5 -9 3 -9 -8 -2 -8 6 -41 12 -73 14 -53 2 -58 1 -47 -13 8
-9 9 -16 3 -16 -5 0 -15 7 -22 15 -7 8 -17 15 -22 15 -13 0 0 -40 21 -64 15
-18 15 -18 -5 -8 -12 6 -24 9 -27 6 -3 -3 -4 2 -3 13 4 23 -15 53 -33 53 -12
0 -11 -3 1 -17 9 -10 14 -27 12 -38 -4 -28 36 -97 66 -112 16 -8 19 -13 9 -13
-9 0 -24 9 -34 20 -10 11 -23 20 -29 19 -30 -4 -45 3 -51 21 -3 11 -11 20 -16
20 -6 0 -7 -4 -4 -10 3 -5 1 -10 -4 -10 -6 0 -19 27 -28 60 -10 33 -24 60 -31
60 -10 0 -10 -6 1 -27 8 -16 18 -38 21 -50 6 -19 4 -22 -11 -16 -27 9 -53 34
-47 45 3 5 12 4 20 -3 11 -9 10 -3 -3 19 -18 31 -19 32 -95 32 -46 0 -78 -4
-78 -10 0 -5 -7 -10 -15 -10 -8 0 -15 4 -15 9 0 5 -20 9 -46 9 -30 0 -44 -4
-41 -11z m871 -6 c3 -5 -3 -11 -13 -14 -14 -3 -18 -1 -14 9 6 16 19 18 27 5z
m-687 -23 c-3 -8 -6 -5 -6 6 -1 11 2 17 5 13 3 -3 4 -12 1 -19z m77 -24 c3 -8
2 -12 -4 -9 -6 3 -10 10 -10 16 0 14 7 11 14 -7z m691 -14 c3 -5 -2 -10 -12
-11 -10 0 -3 -6 16 -13 29 -10 31 -13 17 -25 -14 -12 -16 -11 -16 5 -1 14 -5
12 -17 -11 -10 -16 -16 -35 -15 -41 1 -6 -5 -17 -13 -24 -10 -9 -15 -9 -15 -1
0 6 5 11 10 11 6 0 10 4 10 10 0 5 -7 7 -15 4 -8 -4 -15 -15 -15 -26 0 -11 -5
-18 -12 -16 -15 5 -16 54 -1 51 5 -1 9 10 7 25 -2 15 -1 19 2 10 8 -25 24 -22
26 5 0 12 2 27 3 32 2 6 3 13 4 18 2 11 29 9 36 -3z m95 6 c0 -8 -51 -13 -56
-5 -3 5 9 9 25 9 17 0 31 -2 31 -4z m-866 -22 c3 -8 9 -13 13 -11 5 3 14 -1
21 -9 16 -17 11 -18 -22 -3 -25 12 -44 39 -27 39 5 0 12 -7 15 -16z m1086 -23
c12 -12 10 -11 -9 0 -14 9 -27 22 -29 30 -3 11 -2 11 9 -1 8 -8 21 -21 29 -29z
m-1168 13 c11 -7 10 -32 -1 -39 -5 -3 -15 1 -23 8 -7 7 -24 21 -38 31 l-25 18
40 -7 c22 -4 43 -9 47 -11z m73 -64 c5 -19 4 -21 -4 -10 -8 12 -11 5 -11 -26
0 -26 7 -51 20 -67 11 -14 20 -30 20 -36 0 -6 9 -16 20 -23 11 -7 20 -16 20
-20 0 -16 -51 -7 -69 11 -11 11 -22 17 -24 14 -8 -7 -57 69 -57 87 0 9 -6 22
-12 29 -11 10 -10 11 4 6 10 -4 28 -23 40 -43 25 -41 32 -32 21 24 -5 21 -7
54 -5 73 3 28 6 32 17 20 7 -8 16 -25 20 -39z m121 29 c19 -22 19 -22 -3 -10
-13 6 -23 16 -23 21 0 15 5 12 26 -11z m224 6 c11 -13 10 -14 -4 -9 -9 3 -16
10 -16 15 0 13 6 11 20 -6z m-165 -35 c3 -6 -1 -7 -9 -4 -18 7 -21 14 -7 14 6
0 13 -4 16 -10z m-228 -22 c2 -18 0 -20 -7 -8 -12 18 -13 30 -2 30 4 0 9 -10
9 -22z m826 -3 c-7 -21 -12 -19 -10 4 0 11 5 18 9 15 4 -3 5 -11 1 -19z m91
19 c9 -3 16 -11 16 -16 0 -7 -4 -7 -12 0 -7 5 -22 12 -33 15 -15 3 -16 5 -3 6
9 0 23 -2 32 -5z m90 -13 c3 -5 -1 -11 -9 -15 -9 -3 -15 0 -15 9 0 16 16 20
24 6z m-849 -11 c3 -5 2 -10 -4 -10 -5 0 -13 5 -16 10 -3 6 -2 10 4 10 5 0 13
-4 16 -10z m-211 -40 c15 -32 13 -38 -8 -17 -7 7 -11 18 -8 25 2 6 -1 12 -7
12 -6 0 -11 5 -11 11 0 17 18 1 34 -31z m186 -25 c-6 -42 -24 -75 -34 -64 -2
2 -7 18 -10 34 -3 17 -3 24 0 18 8 -18 35 -16 28 1 -5 12 11 56 20 56 1 0 0
-20 -4 -45z m-26 20 c-4 -8 -11 -15 -16 -15 -6 0 -5 6 2 15 7 8 14 15 16 15 2
0 1 -7 -2 -15z m53 -19 c-7 -14 -13 -23 -15 -21 -7 6 9 45 18 45 4 0 3 -11 -3
-24z m840 -13 c10 -16 24 -35 32 -43 15 -16 13 -17 -41 -22 -23 -2 -39 1 -42
8 -3 7 2 10 12 8 9 -2 24 0 32 5 13 9 13 12 -1 23 -19 16 -32 48 -19 48 5 0
17 -12 27 -27z m-1056 -19 c11 -13 9 -14 -14 -9 -24 6 -26 5 -21 -19 2 -14 0
-26 -6 -26 -14 0 -13 43 2 58 16 16 23 15 39 -4z m1017 1 c-3 -12 -38 -9 -51
4 -5 5 5 8 22 7 17 -1 30 -6 29 -11z m-33 -25 c-3 -5 -10 -10 -16 -10 -5 0 -9
5 -9 10 0 6 7 10 16 10 8 0 12 -4 9 -10z m-685 -4 c0 -3 -4 -8 -10 -11 -5 -3
-10 -1 -10 4 0 6 5 11 10 11 6 0 10 -2 10 -4z m-55 -46 c3 -5 1 -10 -4 -10 -6
0 -11 5 -11 10 0 6 2 10 4 10 3 0 8 -4 11 -10z m52 -42 c-3 -8 -6 -5 -6 6 -1
11 2 17 5 13 3 -3 4 -12 1 -19z m-267 3 c0 -6 -4 -12 -8 -15 -5 -3 -9 1 -9 9
0 8 4 15 9 15 4 0 8 -4 8 -9z m36 -39 c-17 -16 -18 -16 -5 5 7 12 15 20 18 17
3 -2 -3 -12 -13 -22z m1101 6 c-3 -8 -6 -5 -6 6 -1 11 2 17 5 13 3 -3 4 -12 1
-19z m-957 -49 c0 -6 -4 -7 -10 -4 -5 3 -10 11 -10 16 0 6 5 7 10 4 6 -3 10
-11 10 -16z m671 -26 c13 -16 12 -17 -3 -4 -10 7 -18 15 -18 17 0 8 8 3 21
-13z m-928 -88 c-3 -9 -8 -14 -10 -11 -3 3 -2 9 2 15 9 16 15 13 8 -4z m1397
-71 c11 -26 19 -48 17 -50 -2 -3 -38 12 -80 31 -42 19 -80 35 -86 35 -14 0
-14 20 -1 40 8 12 10 11 10 -7 0 -13 5 -23 11 -23 7 0 9 10 4 28 -7 27 -7 27
13 7 11 -11 19 -24 18 -29 0 -5 5 -11 12 -13 6 -3 13 2 13 11 2 25 4 30 13 44
10 17 27 -5 56 -74z m-1320 45 c0 -10 5 -19 10 -19 6 0 10 5 10 10 0 7 6 7 20
0 17 -9 20 -8 20 10 0 11 4 20 10 20 15 0 -1 -33 -29 -58 -25 -23 -25 -23 -3
-19 23 5 27 0 14 -21 -6 -9 -15 -5 -33 15 -13 14 -17 23 -9 19 8 -4 6 0 -4 8
-11 9 -24 16 -30 16 -6 0 -6 4 1 11 6 6 9 18 6 27 -4 10 -2 13 5 8 7 -4 12
-16 12 -27z m704 -35 c22 -8 20 -24 -3 -24 -10 0 -21 7 -25 15 -6 16 3 19 28
9z m-614 -24 c0 -5 -5 -10 -11 -10 -5 0 -7 5 -4 10 3 6 8 10 11 10 2 0 4 -4 4
-10z m787 -32 c-3 -7 -5 -2 -5 12 0 14 2 19 5 13 2 -7 2 -19 0 -25z m-750 2
c-2 -11 -7 -23 -12 -27 -4 -5 -5 -2 -1 5 4 6 2 12 -4 12 -6 0 -13 -7 -16 -15
-10 -24 -26 -17 -18 8 6 21 6 22 -14 4 -11 -10 -23 -14 -26 -9 -7 11 18 24 53
28 13 2 26 5 29 8 10 10 12 6 9 -14z m-157 -20 c0 -5 -2 -10 -4 -10 -3 0 -8 5
-11 10 -3 6 -1 10 4 10 6 0 11 -4 11 -10z m1210 -31 c0 -6 -4 -7 -10 -4 -5 3
-10 11 -10 16 0 6 5 7 10 4 6 -3 10 -11 10 -16z m90 -54 c0 -5 -5 -3 -10 5 -5
8 -10 20 -10 25 0 6 5 3 10 -5 5 -8 10 -19 10 -25z m-330 -6 c0 -6 -4 -7 -10
-4 -5 3 -10 11 -10 16 0 6 5 7 10 4 6 -3 10 -11 10 -16z m-1010 -41 c0 -5 -4
-8 -10 -8 -5 0 -10 10 -10 23 0 18 2 19 10 7 5 -8 10 -18 10 -22z m30 -10 c0
-9 3 -8 10 2 7 12 9 10 7 -8 -1 -25 -8 -27 -25 -10 -15 15 -16 28 -2 28 6 0
10 -6 10 -12z m804 -54 c3 -8 11 -12 17 -9 11 7 49 -22 49 -37 0 -5 -10 -2
-22 6 -23 15 -26 16 -51 16 -7 0 -13 9 -13 20 0 24 11 26 20 4z m107 -19 c15
5 19 2 19 -14 0 -18 19 -28 34 -18 2 1 13 -7 25 -17 19 -17 21 -17 22 -3 1 10
3 22 4 27 1 6 3 15 4 22 2 17 18 -2 23 -26 1 -11 7 -18 12 -17 5 2 13 -3 17
-11 7 -9 11 -10 17 -1 5 8 16 3 37 -14 20 -17 24 -23 10 -18 -11 4 -56 9 -100
11 -44 3 -90 10 -103 16 -24 13 -53 61 -51 87 1 9 4 6 6 -7 3 -17 9 -21 24
-17z m65 20 c-3 -8 0 -14 7 -12 6 1 13 -9 15 -23 l3 -25 -26 29 c-21 22 -24
31 -13 37 18 12 21 11 14 -6z m-311 -25 c3 -5 1 -10 -4 -10 -6 0 -11 5 -11 10
0 6 2 10 4 10 3 0 8 -4 11 -10z m3243 -36 c-9 -9 -22 -14 -30 -11 -8 3 -4 8
12 15 35 15 37 14 18 -4z m-3818 -4 c0 -5 -4 -10 -10 -10 -5 0 -10 5 -10 10 0
6 5 10 10 10 6 0 10 -4 10 -10z m40 -5 c14 -16 10 -18 -14 -9 -9 3 -16 10 -16
15 0 14 16 11 30 -6z m914 -71 c5 -14 4 -15 -9 -4 -17 14 -19 20 -6 20 5 0 12
-7 15 -16z m2711 6 c3 -5 1 -10 -4 -10 -6 0 -11 5 -11 10 0 6 2 10 4 10 3 0 8
-4 11 -10z m140 0 c4 -6 -5 -10 -20 -10 -15 0 -24 4 -20 10 3 6 12 10 20 10 8
0 17 -4 20 -10z m-2817 -35 c-3 -3 -9 2 -12 12 -6 14 -5 15 5 6 7 -7 10 -15 7
-18z m2742 11 c0 -3 -4 -8 -10 -11 -5 -3 -10 -1 -10 4 0 6 5 11 10 11 6 0 10
-2 10 -4z m30 -49 c-10 -9 -11 -9 -6 1 5 7 1 12 -11 13 -16 0 -16 1 2 8 23 10
33 -5 15 -22z m-3828 -19 c-6 -6 -7 0 -4 19 5 21 7 23 10 9 2 -10 0 -22 -6
-28z m1198 7 c0 -5 -5 -3 -10 5 -5 8 -10 20 -10 25 0 6 5 3 10 -5 5 -8 10 -19
10 -25z m-101 -25 c1 -13 0 -13 -9 0 -5 8 -9 24 -9 35 l0 20 9 -20 c5 -11 9
-27 9 -35z m2641 40 c0 -5 -2 -10 -4 -10 -3 0 -8 5 -11 10 -3 6 -1 10 4 10 6
0 11 -4 11 -10z m-3030 -10 c0 -5 -7 -10 -16 -10 -8 0 -12 5 -9 10 3 6 10 10
16 10 5 0 9 -4 9 -10z m-663 -22 c-3 -8 -6 -5 -6 6 -1 11 2 17 5 13 3 -3 4
-12 1 -19z m713 18 c0 -3 -4 -8 -10 -11 -5 -3 -10 -1 -10 4 0 6 5 11 10 11 6
0 10 -2 10 -4z m85 -16 c3 -5 1 -10 -4 -10 -6 0 -11 5 -11 10 0 6 2 10 4 10 3
0 8 -4 11 -10z m285 -15 c0 -7 5 -16 10 -18 6 -3 5 -4 -1 -3 -7 1 -16 12 -20
25 -6 14 -5 20 1 16 6 -3 10 -12 10 -20z m2654 8 c4 -9 1 -21 -5 -27 -9 -8
-10 -8 -5 1 3 6 2 14 -4 18 -5 3 -10 1 -10 -6 0 -7 -3 -10 -6 -6 -9 8 3 37 15
37 5 0 12 -8 15 -17z m-2834 -19 c0 -2 -7 -4 -15 -4 -8 0 -15 4 -15 10 0 5 7
7 15 4 8 -4 15 -8 15 -10z m-873 -16 c-3 -8 -6 -5 -6 6 -1 11 2 17 5 13 3 -3
4 -12 1 -19z m823 -29 c0 -6 -4 -7 -10 -4 -5 3 -10 11 -10 16 0 6 5 7 10 4 6
-3 10 -11 10 -16z m-464 -106 c-3 -28 -10 -62 -14 -74 l-9 -23 -13 24 c-7 14
-15 37 -16 51 -2 15 -5 33 -6 39 -2 7 3 15 10 17 8 3 12 -8 13 -34 l2 -38 7
45 c4 25 5 49 3 53 -3 4 -2 16 2 25 13 31 27 -28 21 -85z m3249 57 c3 -5 1
-10 -4 -10 -6 0 -11 5 -11 10 0 6 2 10 4 10 3 0 8 -4 11 -10z m-2750 -10 c3
-5 1 -10 -4 -10 -6 0 -11 5 -11 10 0 6 2 10 4 10 3 0 8 -4 11 -10z m-635 -37
c0 -5 -5 -15 -10 -23 -8 -12 -10 -11 -10 8 0 12 5 22 10 22 6 0 10 -3 10 -7z
m7 -45 c-3 -8 -6 -5 -6 6 -1 11 2 17 5 13 3 -3 4 -12 1 -19z m89 -153 c-20
-89 -43 -231 -51 -315 -3 -35 -8 -66 -10 -69 -7 -7 -6 45 5 202 5 78 11 187
14 242 3 55 5 102 6 105 0 3 12 -17 26 -45 l26 -50 -16 -70z m3311 108 c-14
-31 -19 -24 -11 16 4 21 10 28 14 20 5 -7 3 -23 -3 -36z m-3407 -14 c8 -28 8
-62 1 -112 -5 -40 -13 -130 -18 -202 -4 -71 -9 -112 -11 -90 -4 45 8 445 14
445 2 0 8 -18 14 -41z m3620 37 c0 -3 -4 -8 -10 -11 -5 -3 -10 -1 -10 4 0 6 5
11 10 11 6 0 10 -2 10 -4z m-712 -31 c-3 -3 -9 2 -12 12 -6 14 -5 15 5 6 7 -7
10 -15 7 -18z m567 -24 c-8 -8 -35 22 -35 38 0 12 5 10 20 -9 10 -14 17 -27
15 -29z m205 42 c0 -5 -11 -8 -25 -8 -14 0 -25 3 -25 8 0 4 11 7 25 7 14 0 25
-3 25 -7z m-4019 -40 c13 -16 12 -17 -3 -4 -10 7 -18 15 -18 17 0 8 8 3 21
-13z m3067 1 c4 2 13 -2 20 -10 15 -17 8 -18 -19 -4 -10 6 -19 16 -18 23 0 9
2 9 6 -1 2 -6 8 -10 11 -8z m265 -18 c11 -3 19 -8 15 -11 -3 -3 -17 -1 -31 4
-20 8 -25 15 -20 28 7 16 8 16 11 2 2 -10 13 -19 25 -23z m387 -9 c0 -36 -16
-26 -24 15 -3 20 -1 25 10 21 8 -3 14 -19 14 -36z m-71 -19 c-8 -14 -14 -18
-17 -10 -4 13 17 46 25 38 3 -2 -1 -15 -8 -28z m-454 12 c3 -5 1 -10 -4 -10
-6 0 -11 5 -11 10 0 6 2 10 4 10 3 0 8 -4 11 -10z m-113 -12 c9 -7 19 -24 23
-38 4 -15 4 -21 -2 -15 -4 6 -19 22 -32 38 -25 28 -18 37 11 15z m348 2 c13
-8 13 -10 -2 -10 -9 0 -20 5 -23 10 -8 13 5 13 25 0z m-170 -31 c0 -14 -17
-10 -23 5 -4 10 -1 13 9 9 7 -3 14 -9 14 -14z m-100 1 c0 -5 -4 -10 -10 -10
-5 0 -10 5 -10 10 0 6 5 10 10 10 6 0 10 -4 10 -10z m497 -41 c-3 -11 -1 -19
3 -19 13 0 22 -38 13 -54 -6 -11 -13 -4 -24 29 -9 25 -13 45 -8 45 5 0 5 7 2
17 -5 11 -3 14 6 9 7 -5 11 -17 8 -27z m-388 -47 c0 -48 -2 -54 -11 -34 -10
20 -28 31 -28 16 0 -8 22 -48 30 -54 13 -9 22 -100 11 -100 -6 0 -11 7 -11 15
0 21 -48 31 -66 13 -9 -9 -26 -13 -40 -10 -23 4 -24 7 -22 76 1 40 -2 77 -5
83 -8 13 52 11 73 -2 10 -6 12 -3 8 13 -4 12 -2 22 3 22 5 0 9 -7 9 -16 0 -26
25 -9 28 19 6 49 22 17 21 -41z m501 18 c0 -31 11 -50 30 -50 14 0 19 -10 22
-40 2 -22 1 -40 -2 -40 -3 0 -16 -3 -29 -7 -16 -4 -22 -3 -17 5 4 6 -3 12 -16
14 -20 3 -23 9 -24 44 0 31 3 41 13 37 16 -6 17 16 3 53 -9 24 -9 25 5 14 8
-7 15 -21 15 -30z m-893 -14 c-7 -13 -15 -22 -18 -20 -4 2 -10 -2 -12 -8 -3
-7 -6 -3 -6 10 -1 13 5 22 14 22 8 0 15 5 15 10 0 6 4 10 9 10 5 0 4 -11 -2
-24z m777 -101 c-12 -46 -22 -36 -21 20 1 52 2 54 14 30 8 -14 11 -36 7 -50z
m-1840 40 c-4 -8 -11 -15 -16 -15 -6 0 -5 6 2 15 7 8 14 15 16 15 2 0 1 -7 -2
-15z m209 -12 c-7 -2 -19 -2 -25 0 -7 3 -2 5 12 5 14 0 19 -2 13 -5z m1842 -3
c3 -5 1 -10 -4 -10 -6 0 -11 5 -11 10 0 6 2 10 4 10 3 0 8 -4 11 -10z m-905
-30 c0 -5 -4 -10 -10 -10 -5 0 -10 5 -10 10 0 6 5 10 10 10 6 0 10 -4 10 -10z
m930 -10 c0 -5 -7 -10 -15 -10 -8 0 -15 5 -15 10 0 6 7 10 15 10 8 0 15 -4 15
-10z m10 -30 c0 -5 -4 -10 -10 -10 -5 0 -10 5 -10 10 0 6 5 10 10 10 6 0 10
-4 10 -10z m120 6 c0 -2 -7 -7 -16 -10 -8 -3 -12 -2 -9 4 6 10 25 14 25 6z
m-2340 -46 c-17 -22 -34 -40 -37 -40 -2 0 10 18 27 40 17 22 34 40 37 40 2 0
-10 -18 -27 -40z m30 -10 c-43 -54 -49 -51 -8 4 18 24 35 42 37 40 2 -2 -11
-21 -29 -44z m490 40 c0 -5 -2 -10 -4 -10 -3 0 -8 5 -11 10 -3 6 -1 10 4 10 6
0 11 -4 11 -10z m1348 -10 c-7 -11 -16 -20 -20 -20 -5 0 -3 9 4 20 7 11 16 20
20 20 5 0 3 -9 -4 -20z m-1163 -10 c3 -5 -1 -10 -10 -10 -9 0 -13 5 -10 10 3
6 8 10 10 10 2 0 7 -4 10 -10z m620 0 c8 -13 -5 -13 -25 0 -13 8 -13 10 2 10
9 0 20 -4 23 -10z m-1277 -46 c-37 -52 -59 -71 -32 -28 19 31 55 74 61 74 2 0
-11 -21 -29 -46z m1452 42 c0 -3 -4 -8 -10 -11 -5 -3 -10 -1 -10 4 0 6 5 11
10 11 6 0 10 -2 10 -4z m-220 -16 c0 -5 -2 -10 -4 -10 -3 0 -8 5 -11 10 -3 6
-1 10 4 10 6 0 11 -4 11 -10z m193 -20 c3 -11 1 -18 -4 -14 -5 3 -9 12 -9 20
0 20 7 17 13 -6z m460 -40 c-8 -30 -20 -59 -26 -65 -6 -7 -8 -7 -5 0 3 6 13
36 22 69 10 32 19 56 21 54 2 -2 -3 -28 -12 -58z m-1868 6 c-37 -48 -42 -46
-9 4 15 22 29 38 31 36 3 -3 -7 -21 -22 -40z m1045 29 c0 -8 -2 -15 -4 -15 -2
0 -6 7 -10 15 -3 8 -1 15 4 15 6 0 10 -7 10 -15z m288 -30 c12 0 19 -12 24
-44 6 -38 4 -48 -17 -73 -24 -28 -35 -88 -16 -88 11 0 21 25 21 56 0 13 5 24
10 24 6 0 10 -15 10 -34 0 -18 3 -54 6 -80 l7 -46 -78 0 -78 0 6 98 c4 53 7
124 7 156 l0 60 33 -32 c41 -40 52 -41 32 -2 -19 37 -19 51 1 25 8 -11 22 -20
32 -20z m-158 -18 c0 -5 6 -5 13 1 9 8 11 -17 9 -121 -2 -73 -5 -138 -7 -145
-4 -9 -24 -12 -72 -10 l-68 3 -3 98 c-3 96 10 177 28 177 5 0 16 -10 24 -22
13 -18 18 -19 31 -8 8 7 15 27 15 44 1 29 1 30 15 12 8 -11 15 -24 15 -29z
m-1140 14 c-11 -21 -30 -37 -30 -25 0 8 30 44 37 44 2 0 -1 -9 -7 -19z m-110
5 c0 -2 -8 -10 -17 -17 -16 -13 -17 -12 -4 4 13 16 21 21 21 13z m1757 -32
c-3 -3 -12 -4 -19 -1 -8 3 -5 6 6 6 11 1 17 -2 13 -5z m-267 -58 c0 -16 7 -37
16 -47 12 -14 42 -110 44 -141 0 -5 -16 -8 -35 -8 l-35 0 -1 78 c0 42 -2 100
-5 127 -3 35 -1 46 6 35 5 -8 10 -28 10 -44z m235 31 c11 2 14 0 8 -3 -7 -3
-13 -12 -13 -21 0 -15 -26 -11 -60 8 -13 7 -12 8 3 9 9 0 17 5 17 11 0 6 5 7
13 2 6 -4 21 -7 32 -6z m-3015 -17 c0 -5 -5 -10 -11 -10 -5 0 -7 5 -4 10 3 6
8 10 11 10 2 0 4 -4 4 -10z m-14 -98 c-11 -10 -14 3 -7 38 l6 35 3 -33 c2 -19
1 -36 -2 -40z m1867 -38 c26 -108 28 -104 -52 -104 -68 0 -70 0 -76 29 -10 47
-2 131 13 131 10 0 10 5 2 20 -12 23 -5 26 15 6 8 -7 11 -16 8 -20 -4 -3 -2
-6 3 -6 6 0 15 5 22 12 9 9 12 9 12 0 0 -7 5 -12 10 -12 7 0 7 6 0 19 -15 29
-12 34 8 14 10 -10 26 -50 35 -89z m1152 95 c10 -7 22 -6 67 6 28 7 35 -3 37
-60 0 -11 4 -39 7 -62 l6 -43 -91 0 -91 0 0 65 c0 62 1 65 24 65 14 0 28 -4
31 -10 3 -5 14 -10 23 -10 27 1 -25 40 -54 40 -12 0 -25 3 -27 8 -6 9 54 10
68 1z m-1215 -9 c0 -5 -4 -10 -10 -10 -5 0 -10 5 -10 10 0 6 5 10 10 10 6 0
10 -4 10 -10z m88 -82 c-4 -31 -4 -29 -12 14 -5 26 -5 56 0 65 6 14 9 11 12
-14 2 -18 2 -48 0 -65z m1296 76 c3 -8 -4 -45 -16 -82 -20 -58 -23 -63 -26
-38 -5 42 7 116 19 116 6 0 7 5 4 10 -3 6 -2 10 3 10 6 0 13 -7 16 -16z m136
-5 c0 -5 -4 -9 -10 -9 -5 0 -10 7 -10 16 0 8 5 12 10 9 6 -3 10 -10 10 -16z
m-1260 -14 c11 7 27 -141 17 -151 -1 -1 -31 -4 -67 -5 l-65 -3 -6 60 c-4 45
-2 62 9 71 8 6 11 17 7 23 -5 9 -1 10 14 5 12 -3 21 -2 21 4 0 6 11 6 31 1 18
-5 35 -7 39 -5z m830 -17 c0 -23 -3 -29 -11 -21 -6 6 -8 20 -4 32 9 30 15 26
15 -11z m394 1 c3 -17 6 -46 6 -64 0 -29 -4 -34 -31 -40 -39 -9 -43 -4 -31 37
5 18 8 48 6 66 -2 27 1 32 21 32 17 0 24 -7 29 -31z m-923 3 c11 2 15 -13 17
-64 l3 -68 -49 0 c-27 0 -83 -3 -125 -6 l-77 -7 0 31 c0 17 7 37 15 46 8 8 15
23 15 32 0 14 3 15 12 6 7 -7 19 -12 28 -12 11 0 8 6 -9 19 l-24 19 29 0 c39
1 71 -16 110 -58 32 -34 62 -37 32 -3 -30 36 -31 44 -4 33 31 -11 34 0 6 18
-12 7 -18 17 -14 23 4 8 9 8 14 0 4 -7 13 -11 21 -9z m1349 8 c0 -5 -2 -10 -4
-10 -3 0 -8 5 -11 10 -3 6 -1 10 4 10 6 0 11 -4 11 -10z m-300 -53 c0 -46 -3
-53 -20 -54 -17 -2 -20 4 -20 47 0 38 4 50 18 53 9 3 18 5 20 6 1 0 2 -23 2
-52z m21 10 c-8 -8 -11 -5 -11 9 0 27 14 41 18 19 2 -9 -1 -22 -7 -28z m77 31
c7 -7 12 -27 12 -46 0 -26 -4 -33 -17 -30 -14 2 -18 14 -19 46 -2 44 4 50 24
30z m175 -35 c6 -30 1 -33 -50 -33 -37 0 -43 3 -43 21 0 16 4 19 19 14 19 -6
23 8 9 31 -5 8 2 8 27 0 22 -7 35 -18 38 -33z m-346 -40 c-2 -16 -4 -3 -4 27
0 30 2 43 4 28 2 -16 2 -40 0 -55z m-1808 18 c-1 -27 -3 -30 -6 -11 -3 14 -9
30 -15 35 -6 7 -7 1 -3 -17 5 -19 3 -28 -5 -28 -7 0 -10 6 -7 14 6 15 -15 40
-25 30 -3 -2 -8 1 -11 8 -3 10 5 12 34 10 38 -4 39 -5 38 -41z m391 -23 c0
-53 -3 -69 -11 -61 -10 10 -4 133 7 133 2 0 4 -32 4 -72z m-1933 25 c-3 -10
-5 -4 -5 12 0 17 2 24 5 18 2 -7 2 -21 0 -30z m3723 12 c0 -14 -2 -25 -4 -25
-2 0 -6 11 -8 25 -3 14 -1 25 3 25 5 0 9 -11 9 -25z m-2099 -8 c-10 -9 -11 -8
-5 6 3 10 9 15 12 12 3 -3 0 -11 -7 -18z m1264 -65 c-7 -7 -25 47 -24 71 1 14
6 5 15 -22 8 -25 12 -47 9 -49z m12 41 c-3 -10 -5 -4 -5 12 0 17 2 24 5 18 2
-7 2 -21 0 -30z m50 -25 c-2 -13 -4 -3 -4 22 0 25 2 35 4 23 2 -13 2 -33 0
-45z m-1470 30 c-3 -8 -6 -5 -6 6 -1 11 2 17 5 13 3 -3 4 -12 1 -19z m1973 2
c0 -11 -2 -20 -4 -20 -2 0 -6 9 -9 20 -3 11 -1 20 4 20 5 0 9 -9 9 -20z m35 1
c3 -5 1 -12 -5 -16 -5 -3 -10 1 -10 9 0 18 6 21 15 7z m212 -43 c-3 -7 -5 -2
-5 12 0 14 2 19 5 13 2 -7 2 -19 0 -25z m-3716 -70 c-6 -17 -11 -42 -11 -56 0
-14 -3 -23 -6 -19 -4 3 0 44 7 89 10 60 15 74 17 50 2 -19 -1 -47 -7 -64z
m1494 82 c3 -5 1 -10 -4 -10 -6 0 -11 5 -11 10 0 6 2 10 4 10 3 0 8 -4 11 -10z
m649 -5 c-4 -8 -8 -15 -10 -15 -2 0 -4 7 -4 15 0 8 4 15 10 15 5 0 7 -7 4 -15z
m1406 11 c0 -3 -4 -8 -10 -11 -5 -3 -10 -1 -10 4 0 6 5 11 10 11 6 0 10 -2 10
-4z m-178 -94 c2 -53 5 -62 23 -65 15 -3 13 -5 -7 -6 l-28 -1 0 72 c0 86 9 86
12 0z m138 64 c0 -3 -4 -8 -10 -11 -5 -3 -10 -1 -10 4 0 6 5 11 10 11 6 0 10
-2 10 -4z m-1763 -12 c-11 -11 -77 -22 -82 -14 -5 8 10 11 74 18 8 1 12 -1 8
-4z m1973 -19 c0 -10 -11 -15 -35 -15 -41 0 -47 17 -7 23 15 2 30 5 35 6 4 0
7 -6 7 -14z m-2563 -14 c17 -11 54 -29 81 -41 l49 -21 56 25 c31 14 63 26 72
26 9 0 25 5 37 11 11 6 22 8 25 5 10 -9 -26 -44 -53 -50 -16 -4 -24 -14 -25
-29 -1 -17 -2 -18 -6 -4 -5 18 -23 24 -23 6 0 -6 -9 -8 -20 -4 -11 3 -20 2
-20 -2 0 -10 108 -58 115 -51 6 5 13 46 14 76 1 24 21 31 21 7 0 -10 11 -15
35 -15 33 0 35 -2 35 -35 0 -19 -4 -35 -9 -35 -4 0 -6 -11 -3 -25 2 -15 0 -25
-7 -25 -6 0 -11 13 -11 28 0 35 -31 40 -46 8 -16 -35 -6 -46 44 -46 39 -1 44
-2 28 -12 -21 -12 -214 -5 -357 13 l-85 11 -3 72 c-1 39 -2 79 -2 90 0 17 -1
17 -19 1 -11 -10 -17 -22 -14 -27 3 -5 0 -16 -7 -25 -11 -13 -10 -17 4 -28 9
-7 17 -21 16 -31 0 -14 -2 -15 -6 -4 -4 8 -12 21 -20 29 -12 11 -16 11 -28 -5
-10 -13 -14 -15 -15 -5 0 8 8 20 18 28 16 14 16 14 0 9 -26 -8 -22 2 20 49 42
49 63 53 109 26z m128 3 c15 -15 14 -17 -7 -29 -24 -12 -38 -10 -38 6 0 5 6 8
13 7 6 -2 11 5 11 15 -2 21 0 21 21 1z m55 3 c-27 -15 -36 -14 -25 2 3 6 16
11 28 11 21 0 21 -1 -3 -13z m253 6 c-7 -2 -19 -2 -25 0 -7 3 -2 5 12 5 14 0
19 -2 13 -5z m1919 -15 c-19 -19 -14 -29 13 -22 21 5 25 3 25 -16 0 -18 -4
-21 -24 -16 -15 4 -26 1 -29 -7 -3 -6 -6 7 -6 30 -1 25 4 43 12 46 18 6 23 -1
9 -15z m-72 2 c0 -5 -7 -10 -16 -10 -8 0 -12 5 -9 10 3 6 10 10 16 10 5 0 9
-4 9 -10z m8 -40 c-5 -23 -38 -25 -38 -3 0 12 7 19 20 19 13 0 20 -6 18 -16z
m-171 -30 c9 0 13 6 9 15 -3 9 0 15 8 15 21 0 12 -45 -10 -49 -10 -2 -22 -8
-26 -15 -4 -6 -7 9 -6 34 0 25 3 35 5 23 2 -13 11 -23 20 -23z m-2296 -15 c5
4 9 1 9 -4 0 -6 -6 -11 -12 -11 -9 0 -8 -4 2 -11 11 -8 12 -12 3 -16 -7 -2
-13 -16 -13 -30 0 -15 -2 -24 -5 -21 -6 5 -9 80 -5 118 3 24 3 24 7 -3 2 -15
9 -25 14 -22z m1769 29 c0 -2 -7 -4 -15 -4 -8 0 -15 4 -15 10 0 5 7 7 15 4 8
-4 15 -8 15 -10z m227 -6 c-3 -8 -6 -5 -6 6 -1 11 2 17 5 13 3 -3 4 -12 1 -19z
m88 12 c-11 -5 -33 -8 -50 -8 -29 1 -29 1 5 8 49 10 69 10 45 0z m72 -5 c8
-23 0 -24 -19 -3 -15 15 -16 18 -3 18 9 0 18 -7 22 -15z m63 -25 c0 -31 -4
-40 -17 -40 -12 0 -14 3 -6 8 6 4 11 14 11 22 -2 26 2 50 7 50 3 0 5 -18 5
-40z m-283 24 c-3 -3 -12 -4 -19 -1 -8 3 -5 6 6 6 11 1 17 -2 13 -5z m523 -18
c0 -3 -4 -8 -10 -11 -5 -3 -10 -1 -10 4 0 6 5 11 10 11 6 0 10 -2 10 -4z m90
-43 c0 -45 -5 -40 -13 10 -3 22 -2 35 4 32 5 -4 9 -22 9 -42z m-3680 27 c0 -5
-2 -10 -4 -10 -3 0 -8 5 -11 10 -3 6 -1 10 4 10 6 0 11 -4 11 -10z m3607 -22
c-1 -32 -2 -33 -45 -33 -27 0 -47 -6 -52 -15 -7 -11 -10 -5 -10 20 0 34 2 36
37 38 20 2 43 7 52 12 9 5 17 10 17 10 1 0 1 -15 1 -32z m-3377 -27 c-5 -37
-3 -48 6 -44 7 3 10 11 7 19 -3 8 -2 14 3 13 20 -3 34 2 34 12 0 6 -9 8 -22 4
-20 -5 -21 -4 -5 5 20 13 50 -4 55 -31 2 -12 -4 -15 -25 -13 l-28 4 30 -14
c17 -8 32 -10 33 -5 2 5 10 9 18 9 8 0 14 7 14 15 0 8 7 15 15 15 8 0 12 -6 9
-14 -6 -16 26 -26 62 -20 13 2 24 0 24 -6 0 -5 -11 -10 -25 -10 -14 0 -25 -4
-25 -10 0 -15 32 -12 54 5 24 18 53 19 58 4 3 -9 10 -9 26 0 12 6 22 8 22 2 0
-14 -49 -23 -67 -12 -12 6 -21 5 -28 -4 -12 -15 -95 -27 -95 -14 0 5 5 9 10 9
6 0 10 7 10 16 0 13 -3 14 -14 5 -11 -9 -15 -9 -18 0 -3 9 -9 9 -25 0 -28 -14
-63 -14 -63 1 0 6 -8 4 -19 -6 -10 -9 -25 -16 -32 -14 -8 2 -15 -7 -17 -19 -3
-18 1 -23 20 -23 22 1 22 1 4 15 -19 15 -19 15 1 15 12 0 27 2 35 5 20 8 40
-41 22 -56 -11 -9 -14 -6 -14 15 0 14 -5 26 -11 26 -6 0 -8 -9 -4 -20 5 -16 3
-19 -10 -13 -13 4 -16 1 -14 -12 4 -16 13 -18 79 -16 41 1 79 5 85 9 12 7 -15
-29 -30 -40 -5 -4 0 -8 12 -8 12 0 23 6 26 13 3 8 10 6 22 -8 14 -17 16 -17
11 -2 -3 9 -2 17 3 17 14 0 51 -46 44 -55 -5 -4 -2 -5 5 -1 6 4 12 2 12 -3 0
-15 -38 -13 -89 5 -24 8 -46 13 -48 10 -3 -3 6 -8 21 -12 14 -3 26 -9 26 -13
0 -11 -44 -8 -52 4 -5 6 -8 5 -8 -2 0 -7 -10 -13 -22 -14 -20 -1 -20 -2 5 -9
15 -5 41 -5 58 0 51 15 71 -7 45 -48 -13 -22 1 -25 26 -6 24 18 24 18 4 38
-15 15 -17 21 -6 24 14 5 40 -23 40 -42 0 -6 -16 -21 -35 -33 -33 -22 -56 -31
-42 -17 13 13 -39 42 -68 38 -17 -2 -24 -1 -17 2 20 9 14 26 -8 19 -11 -3 -20
-3 -20 2 0 4 -10 19 -21 33 -11 14 -18 19 -14 13 4 -8 0 -13 -9 -13 -9 0 -16
-5 -16 -11 0 -9 -4 -8 -14 0 -8 6 -27 8 -46 5 -31 -7 -32 -6 -25 17 9 29 13
34 21 26 4 -4 1 -14 -7 -23 -12 -15 -12 -17 0 -13 21 7 34 49 16 49 -10 0 -15
10 -15 30 0 23 4 30 20 30 11 0 20 5 20 11 0 6 -7 9 -15 5 -8 -3 -15 0 -15 6
0 32 25 178 30 178 4 0 4 -22 0 -49z m2695 39 c3 -5 1 -10 -4 -10 -6 0 -11 5
-11 10 0 6 2 10 4 10 3 0 8 -4 11 -10z m255 -6 c0 -2 -13 -4 -30 -4 -16 0 -30
4 -30 8 0 5 14 7 30 4 17 -2 30 -6 30 -8z m100 7 c0 -22 -37 -36 -97 -37 -34
-1 -63 1 -63 5 0 6 41 12 113 15 40 1 33 14 -10 19 -35 3 -34 4 10 5 26 1 47
-2 47 -7z m367 -38 c-3 -10 -5 -4 -5 12 0 17 2 24 5 18 2 -7 2 -21 0 -30z
m183 27 c0 -5 -4 -10 -10 -10 -5 0 -10 5 -10 10 0 6 5 10 10 10 6 0 10 -4 10
-10z m-370 -10 c8 -5 10 -10 4 -10 -6 0 -17 -11 -24 -25 -10 -19 -16 -22 -27
-14 -27 23 -15 49 27 58 3 0 12 -4 20 -9z m-370 -10 c0 -5 -5 -10 -11 -10 -5
0 -7 5 -4 10 3 6 8 10 11 10 2 0 4 -4 4 -10z m-2630 -30 c-8 -6 -21 -8 -28 -5
-8 3 -21 6 -30 6 -9 1 1 5 23 8 45 7 56 4 35 -9z m45 10 c3 -5 1 -10 -4 -10
-6 0 -11 5 -11 10 0 6 2 10 4 10 3 0 8 -4 11 -10z m705 -5 c0 -8 -4 -15 -10
-15 -5 0 -7 7 -4 15 4 8 8 15 10 15 2 0 4 -7 4 -15z m1803 8 c-7 -2 -19 -2
-25 0 -7 3 -2 5 12 5 14 0 19 -2 13 -5z m337 1 c0 -10 -42 -45 -48 -40 -10 11
11 46 29 46 10 0 19 -3 19 -6z m115 -13 c-3 -6 -11 -11 -17 -11 -6 0 -6 6 2
15 14 17 26 13 15 -4z m-2912 2 c-7 -2 -19 -2 -25 0 -7 3 -2 5 12 5 14 0 19
-2 13 -5z m2304 -19 c8 3 24 6 36 6 18 0 19 2 7 10 -13 8 -13 10 2 10 9 0 19
-4 22 -8 3 -5 39 -6 80 -4 64 3 76 1 76 -12 0 -9 -5 -16 -11 -16 -5 0 -8 4 -5
9 5 8 -49 7 -186 -3 -66 -5 -67 -5 -55 15 10 16 13 17 15 4 2 -10 10 -14 19
-11z m393 6 c0 -17 -5 -19 -41 -14 l-41 6 21 -21 c23 -23 20 -41 -7 -40 -11 0
-12 3 -4 6 18 7 15 23 -10 43 l-23 18 25 6 c41 9 65 14 73 15 4 0 7 -8 7 -19z
m350 -2 c8 -3 -2 -5 -22 -4 -21 0 -38 4 -38 8 0 9 34 15 40 7 3 -3 12 -8 20
-11z m-865 -5 c-1 -10 -8 -17 -15 -15 -35 8 -71 8 -76 1 -9 -14 -34 -10 -28 4
3 9 24 15 56 16 29 1 54 4 57 6 8 8 9 6 6 -12z m-1935 -13 c-8 -5 -19 -10 -25
-10 -5 0 -3 5 5 10 8 5 20 10 25 10 6 0 3 -5 -5 -10z m85 0 c-3 -5 -12 -7 -20
-3 -21 7 -19 13 6 13 11 0 18 -4 14 -10z m1624 1 c46 10 65 5 41 -12 -8 -5
-27 -7 -41 -5 -15 3 -29 2 -33 -1 -3 -4 -32 -8 -64 -10 -31 -2 -70 -5 -87 -6
-16 -2 -47 -4 -67 -5 -42 -2 -49 -15 -17 -33 12 -6 19 -7 15 -1 -8 13 32 20
105 18 32 -1 59 1 59 4 0 3 32 7 70 8 43 2 70 -2 70 -8 0 -5 5 -10 10 -10 6 0
9 5 8 11 -4 15 43 20 60 7 8 -7 12 -7 12 1 0 18 89 14 97 -5 3 -8 0 -21 -7
-27 -10 -10 -12 -8 -7 5 8 24 -6 30 -48 22 -29 -5 -33 -9 -24 -20 8 -10 8 -14
1 -14 -6 0 -16 8 -22 18 -8 12 -13 13 -16 5 -3 -7 -12 -13 -20 -13 -8 0 -11
-6 -8 -15 4 -9 0 -15 -9 -15 -28 0 -29 -19 -1 -45 31 -28 44 -32 44 -10 0 9
-6 12 -17 8 -10 -3 -15 -3 -11 2 4 4 2 15 -5 23 -10 13 -9 14 3 9 8 -4 23 -10
33 -13 14 -5 17 -13 12 -33 -4 -14 -7 -26 -8 -27 -1 -1 -19 1 -39 3 -35 5 -37
7 -27 27 10 17 9 19 -2 9 -7 -7 -18 -13 -23 -13 -6 0 -4 4 4 10 12 7 12 12 -5
29 -10 12 -21 19 -24 16 -10 -11 -11 -45 0 -45 5 0 7 -4 4 -10 -7 -12 -16 -12
-32 -2 -10 7 -10 14 0 35 14 31 37 43 48 25 6 -9 11 -9 23 1 20 17 12 31 -13
24 -11 -3 -21 2 -24 10 -5 13 -12 14 -41 5 -20 -6 -36 -16 -36 -21 0 -5 7 -6
16 -3 14 5 16 1 10 -25 -3 -17 -6 -38 -6 -45 0 -12 -4 -12 -20 -2 -11 7 -20
16 -20 20 0 4 9 10 20 13 31 10 24 28 -7 21 -21 -5 -24 -4 -13 4 9 6 10 10 3
10 -6 0 -14 -4 -18 -10 -3 -5 -12 -7 -21 -3 -13 5 -13 7 1 17 13 9 8 12 -30
14 -28 1 -44 -2 -40 -8 3 -6 2 -10 -4 -10 -5 0 -13 5 -16 10 -7 12 -25 13 -25
2 0 -13 64 -34 68 -22 7 19 20 10 15 -10 -7 -25 -4 -25 -88 7 -70 27 -95 43
-95 61 0 6 -9 8 -20 5 -11 -3 -20 -10 -20 -15 0 -5 -8 -7 -19 -3 -12 3 -21 0
-25 -10 -5 -13 -1 -15 15 -10 19 6 21 4 15 -19 -4 -18 -3 -24 6 -21 16 5 54
-22 44 -32 -12 -13 -77 -7 -86 7 -7 11 -12 11 -23 2 -7 -7 -16 -9 -19 -7 -3 3
-17 1 -32 -4 -14 -6 -26 -7 -26 -3 0 4 -17 18 -38 32 -20 14 -40 29 -44 34
-27 38 90 62 280 58 60 -1 92 2 92 9 0 7 11 8 31 4 18 -4 29 -3 26 2 -3 5 18
9 49 8 30 -1 57 3 61 8 3 5 8 5 12 -1 4 -8 20 -8 50 -1z m531 -1 c0 -5 -5 -10
-11 -10 -6 0 -9 -7 -5 -15 3 -8 1 -15 -4 -15 -11 0 -13 11 -4 34 7 18 24 22
24 6z m-2425 -10 c3 -5 1 -10 -4 -10 -6 0 -11 5 -11 10 0 6 2 10 4 10 3 0 8
-4 11 -10z m72 4 c-3 -3 -12 -4 -19 -1 -8 3 -5 6 6 6 11 1 17 -2 13 -5z m2396
-11 c3 -5 -6 -9 -19 -9 -13 -1 -21 2 -18 7 6 11 31 12 37 2z m225 -7 c-7 -8
-15 -12 -17 -11 -5 6 10 25 20 25 5 0 4 -6 -3 -14z m134 -4 c16 -16 -7 -16
-47 2 l-30 13 32 -1 c18 -1 38 -7 45 -14z m125 2 c4 -12 -63 -11 -74 1 -5 4 2
4 14 1 12 -4 24 -2 28 4 8 12 27 9 32 -6z m-3197 -15 c0 -5 -13 -9 -30 -9 -35
0 -41 17 -7 22 26 5 37 1 37 -13z m1540 1 c0 -5 -5 -10 -10 -10 -6 0 -20 -16
-32 -36 -19 -32 -23 -34 -28 -18 -4 10 -5 25 -3 32 3 6 0 12 -6 12 -6 0 -11 4
-11 9 0 6 17 12 38 14 20 2 40 4 45 5 4 1 7 -2 7 -8z m-100 -4 c0 -2 3 -11 6
-20 5 -12 0 -16 -20 -16 -29 0 -34 -17 -10 -34 13 -10 11 -12 -10 -14 -21 -1
-25 2 -23 20 1 11 -5 23 -13 26 -12 4 -13 3 -2 -10 18 -22 -8 -47 -42 -41 -14
3 -26 1 -26 -5 0 -13 56 -36 69 -27 6 3 11 -1 11 -9 0 -21 -16 -20 -56 4 -32
20 -64 22 -125 5 -18 -4 -30 -2 -35 7 -13 20 -16 61 -5 54 5 -4 12 3 16 14 9
29 27 25 19 -5 -5 -21 -3 -25 15 -25 12 0 21 -4 21 -9 0 -4 10 -8 23 -7 16 1
21 7 20 24 -2 16 3 22 17 22 11 0 19 -5 18 -11 -2 -6 9 -13 24 -16 22 -3 26 0
22 12 -4 9 -13 14 -20 11 -8 -3 -14 -1 -14 3 0 5 6 12 13 14 6 3 3 6 -8 7 -19
1 -19 1 -2 11 10 6 24 9 30 6 7 -2 21 -1 32 4 22 8 55 11 55 5z m1045 -26 c4
0 3 6 -1 13 -4 7 -2 7 7 -2 11 -10 11 -15 2 -18 -7 -3 -13 -11 -13 -20 0 -21
24 -10 28 13 2 10 8 24 14 29 6 6 7 4 2 -8 -6 -16 -3 -17 22 -11 16 4 34 11
41 16 7 6 21 3 38 -8 30 -19 27 -31 -4 -14 -16 8 -31 8 -61 -1 -38 -12 -39
-13 -24 -31 16 -17 16 -18 1 -18 -10 0 -17 5 -17 11 0 5 -5 7 -10 4 -17 -10
-52 5 -46 21 6 16 -19 20 -29 4 -3 -5 -2 -10 3 -10 6 0 16 -19 24 -42 9 -31
18 -43 31 -42 10 1 16 -3 14 -10 -2 -6 -12 -10 -21 -10 -18 2 -21 -7 -5 -23 7
-7 3 -11 -15 -10 -14 0 -26 4 -26 9 0 5 -4 6 -10 3 -5 -3 -18 -2 -27 4 -15 8
-14 10 11 17 19 4 31 2 38 -7 8 -12 9 -11 5 1 -2 8 -18 16 -35 18 -18 2 -32 8
-32 13 0 6 -4 7 -10 4 -16 -10 -11 1 7 16 9 8 14 9 10 2 -8 -12 30 -30 40 -19
4 3 1 6 -5 6 -7 0 -12 5 -12 10 0 6 7 10 15 10 22 0 18 16 -7 35 -22 15 -22
16 -4 30 11 9 16 20 12 31 -6 15 -5 15 18 0 14 -9 28 -16 31 -16z m85 26 c0
-3 -4 -8 -10 -11 -5 -3 -10 -1 -10 4 0 6 5 11 10 11 6 0 10 -2 10 -4z m130 -6
c0 -5 -5 -10 -11 -10 -5 0 -7 5 -4 10 3 6 8 10 11 10 2 0 4 -4 4 -10z m87 -32
c5 -24 10 -56 9 -73 -1 -25 -5 -30 -24 -28 -13 2 -21 -1 -17 -7 4 -6 23 -7 46
-4 26 4 39 3 39 -5 0 -6 -4 -11 -9 -11 -5 0 -21 -3 -37 -6 -25 -5 -32 -1 -47
25 -13 22 -14 31 -6 31 7 0 4 7 -7 15 -16 13 -16 14 -1 9 9 -3 17 -1 17 4 0 6
-9 13 -19 17 -14 4 -18 11 -14 23 6 15 5 15 -10 3 -9 -7 -14 -17 -11 -22 3 -5
0 -9 -5 -9 -14 0 -14 17 -1 25 6 4 8 10 5 15 -3 4 2 10 10 14 8 3 17 1 20 -4
10 -16 23 -11 30 10 10 31 20 24 32 -22z m-377 13 c-12 -24 -30 -36 -30 -22 0
6 5 11 10 11 6 0 10 7 10 15 0 8 5 15 10 15 7 0 7 -6 0 -19z m266 -18 c-4 -4
-11 -1 -16 7 -16 25 -11 35 7 17 9 -9 13 -20 9 -24z m184 16 c0 -5 -4 -9 -10
-9 -5 0 -10 7 -10 16 0 8 5 12 10 9 6 -3 10 -10 10 -16z m-2832 0 c2 6 9 11
15 11 7 -1 1 -10 -12 -20 -13 -11 -35 -19 -50 -19 -17 1 -20 3 -8 6 15 4 16 8
6 19 -10 13 -8 13 17 4 20 -8 30 -8 32 -1z m1792 -19 c16 -16 30 -25 32 -20 4
12 48 1 48 -12 0 -6 -9 -8 -21 -5 -13 3 -19 1 -16 -6 2 -7 12 -11 21 -11 9 1
16 -1 16 -6 0 -9 51 -32 58 -26 2 3 13 1 23 -5 15 -7 19 -6 19 5 0 8 -5 18
-11 21 -7 5 -4 14 7 26 22 24 26 24 43 -3 13 -22 13 -22 -4 -8 -17 14 -18 13
-12 -2 3 -10 3 -18 -1 -18 -4 0 -8 -9 -8 -20 0 -13 7 -20 18 -20 10 0 18 5 18
10 0 6 5 10 11 10 16 0 -1 -20 -25 -30 -11 -4 -25 -4 -31 0 -5 4 -24 10 -41
13 -25 5 -36 1 -50 -15 -17 -19 -17 -21 -2 -15 9 3 22 0 28 -8 17 -21 -24 -14
-83 14 -56 26 -57 37 -2 22 25 -7 44 -7 56 0 25 13 24 23 -1 16 -11 -3 -18 -1
-15 3 3 5 -5 12 -17 16 -13 4 -24 2 -26 -5 -2 -6 -8 -8 -14 -5 -5 4 -21 1 -34
-6 -19 -11 -34 -11 -79 0 -31 7 -58 17 -61 22 -5 8 30 3 66 -9 31 -10 70 -12
70 -3 0 6 11 10 25 10 14 0 25 4 25 8 0 14 -54 57 -70 55 -9 -2 -10 0 -3 3 7
3 9 12 6 20 -8 22 5 17 37 -16z m520 20 c0 -5 -4 -10 -10 -10 -5 0 -10 5 -10
10 0 6 5 10 10 10 6 0 10 -4 10 -10z m475 0 c3 -5 1 -10 -4 -10 -6 0 -11 5
-11 10 0 6 2 10 4 10 3 0 8 -4 11 -10z m-1784 -23 c-10 -9 -11 -8 -5 6 3 10 9
15 12 12 3 -3 0 -11 -7 -18z m-931 3 c0 -5 -4 -10 -9 -10 -6 0 -13 5 -16 10
-3 6 1 10 9 10 9 0 16 -4 16 -10z m260 6 c0 -2 -7 -7 -16 -10 -8 -3 -12 -2 -9
4 6 10 25 14 25 6z m463 -3 c-7 -2 -21 -2 -30 0 -10 3 -4 5 12 5 17 0 24 -2
18 -5z m297 0 c-8 -3 -23 -14 -34 -25 -11 -10 -26 -18 -33 -18 -20 0 -15 -18
8 -31 16 -8 20 -8 14 0 -8 15 14 43 27 35 6 -4 5 -10 -3 -15 -8 -4 -14 -14
-14 -21 0 -18 -32 -22 -49 -6 -7 8 -16 23 -20 35 -5 17 -3 20 17 16 14 -3 33
4 47 16 14 11 32 20 40 20 13 -1 13 -1 0 -6z m-517 -10 c-7 -2 -19 -2 -25 0
-7 3 -2 5 12 5 14 0 19 -2 13 -5z m241 -8 c-7 -16 -24 -21 -24 -6 0 8 7 13 27
20 1 1 0 -6 -3 -14z m66 5 c0 -5 -5 -10 -11 -10 -5 0 -7 5 -4 10 3 6 8 10 11
10 2 0 4 -4 4 -10z m540 0 c0 -13 -11 -13 -30 0 -12 8 -11 10 8 10 12 0 22 -4
22 -10z m70 1 c0 -5 16 -16 35 -25 36 -17 75 -53 75 -68 0 -5 -11 -1 -25 8
-14 9 -25 23 -25 30 0 8 -4 14 -10 14 -17 0 -11 -20 15 -46 28 -28 32 -44 10
-44 -9 0 -12 6 -8 17 5 13 2 15 -15 11 -15 -4 -19 -2 -15 8 3 8 0 14 -7 14 -6
0 -8 5 -5 10 9 14 -2 12 -28 -4 -12 -7 -35 -17 -50 -20 l-28 -7 21 23 c11 12
16 24 10 26 -15 5 -12 22 4 22 8 0 18 -9 21 -20 3 -11 11 -20 16 -20 12 0 12
47 -1 55 -5 3 -10 10 -10 16 0 5 5 9 10 9 6 0 10 -4 10 -9z m797 -27 c-2 -3
-17 1 -32 8 l-28 13 24 6 c22 5 49 -15 36 -27z m28 26 c-3 -5 -10 -10 -16 -10
-5 0 -9 5 -9 10 0 6 7 10 16 10 8 0 12 -4 9 -10z m235 0 c0 -5 -5 -10 -11 -10
-5 0 -7 5 -4 10 3 6 8 10 11 10 2 0 4 -4 4 -10z m75 -3 c12 4 16 3 11 -5 -4
-7 3 -14 18 -18 30 -7 40 -28 20 -44 -10 -9 -14 -9 -14 -1 0 6 5 11 11 11 5 0
7 5 4 10 -4 6 -11 8 -16 5 -5 -4 -9 -1 -9 4 0 6 -3 10 -7 9 -5 -1 -18 3 -30
10 -22 12 -53 7 -53 -10 0 -18 21 -48 34 -48 7 0 13 7 13 15 0 8 -6 15 -14 15
-7 0 -13 5 -13 10 0 13 10 12 40 -5 14 -8 20 -14 13 -15 -15 0 -10 -33 7 -38
8 -3 10 0 5 9 -5 8 -6 12 -2 9 3 -3 6 -9 7 -15 2 -5 14 -15 29 -22 25 -11 24
-11 -9 -6 -19 4 -37 9 -40 13 -9 11 -75 35 -90 32 -13 -2 -13 -2 0 7 20 13 7
24 -19 16 -12 -3 -18 -11 -15 -17 4 -6 1 -9 -5 -7 -24 8 -15 24 19 36 19 7 31
12 26 12 -4 1 2 10 15 20 16 13 28 16 35 10 6 -5 20 -6 29 -2z m-2171 -8 c-3
-5 -12 -9 -20 -9 -13 0 -18 -14 -17 -47 1 -7 -3 -13 -7 -13 -4 0 -7 17 -7 38
2 33 5 37 29 38 15 1 25 -3 22 -7z m69 4 c8 -13 -9 -48 -16 -36 -4 7 -2 15 5
19 8 5 6 10 -8 15 -16 6 -16 8 -2 8 9 1 19 -2 21 -6z m186 -24 c-9 -17 -9 -24
0 -27 14 -5 15 -32 1 -32 -5 0 -10 7 -10 15 0 8 -7 15 -15 15 -20 0 -19 5 7
35 25 29 35 26 17 -6z m391 21 c0 -5 -5 -10 -11 -10 -5 0 -7 5 -4 10 3 6 8 10
11 10 2 0 4 -4 4 -10z m130 0 c0 -12 -8 -12 -35 0 -18 8 -17 9 8 9 15 1 27 -3
27 -9z m-884 -9 c-3 -5 -17 -9 -31 -10 -14 -1 -36 -2 -50 -3 -14 -1 -25 -6
-25 -11 0 -5 -11 -6 -25 -3 -17 4 -31 0 -44 -13 -11 -11 -28 -18 -38 -16 -10
2 -21 4 -25 4 -4 1 -4 8 -1 18 4 10 2 14 -5 9 -6 -3 -13 -2 -17 4 -3 5 -3 10
2 10 107 5 198 12 202 16 8 8 62 4 57 -5z m44 -1 c0 -5 -4 -10 -9 -10 -6 0
-13 5 -16 10 -3 6 1 10 9 10 9 0 16 -4 16 -10z m374 -15 c-28 -22 -40 -18 -13
4 13 11 26 17 28 15 3 -2 -4 -11 -15 -19z m69 18 c-7 -2 -13 -11 -13 -19 0 -8
-7 -14 -15 -14 -8 0 -15 3 -15 6 0 10 33 33 45 33 6 0 4 -3 -2 -6z m77 -3 c0
-5 -4 -10 -10 -10 -5 0 -10 5 -10 10 0 6 5 10 10 10 6 0 10 -4 10 -10z m60
-23 c9 -4 5 -6 -10 -4 -16 1 -26 9 -28 22 -2 18 -1 18 10 4 7 -9 20 -19 28
-22z m1389 11 c-6 -11 -21 -18 -40 -18 -18 0 -28 4 -24 10 4 6 16 8 27 4 16
-5 20 -3 16 8 -4 9 1 14 12 14 15 0 16 -4 9 -18z m-448 -18 c5 0 9 5 9 11 0 5
5 7 10 4 8 -5 7 -11 -1 -21 -10 -13 -14 -12 -30 2 -10 9 -15 22 -11 28 4 7 8
5 10 -6 2 -10 8 -18 13 -18z m-1418 5 c4 -8 1 -17 -5 -21 -7 -4 -8 -3 -4 4 7
12 -5 16 -31 13 -7 -1 -13 3 -13 9 0 16 47 12 53 -5z m107 5 c0 -5 -7 -7 -15
-4 -8 4 -15 8 -15 10 0 2 7 4 15 4 8 0 15 -4 15 -10z m276 -10 c13 0 24 -4 24
-9 0 -4 -12 -6 -27 -3 -25 5 -26 3 -15 -10 9 -11 10 -18 2 -23 -5 -3 -10 1
-10 9 0 9 -8 16 -17 17 -11 0 -13 3 -5 6 6 2 12 12 13 21 0 11 2 12 6 5 2 -7
16 -13 29 -13z m238 4 c9 -23 8 -27 -9 -20 -9 3 -18 -1 -21 -9 -9 -22 -23 -18
-17 5 3 11 12 20 20 20 8 0 11 5 8 10 -3 6 -2 10 3 10 6 0 13 -7 16 -16z
m1360 1 c-6 -16 -24 -21 -24 -7 0 11 11 22 21 22 5 0 6 -7 3 -15z m851 5 c-3
-5 -10 -10 -16 -10 -5 0 -9 5 -9 10 0 6 7 10 16 10 8 0 12 -4 9 -10z m-2995
-6 c0 -3 -9 -17 -20 -31 -11 -14 -18 -29 -15 -33 3 -4 -6 -15 -20 -24 -22 -14
-25 -15 -25 -1 0 8 5 15 11 15 5 0 8 4 4 9 -3 5 0 13 6 16 5 4 8 13 5 21 -3 9
2 14 14 14 11 0 20 5 20 10 0 6 5 10 10 10 6 0 10 -3 10 -6z m54 -3 c6 -9 -44
-35 -52 -27 -3 3 3 8 12 12 9 3 13 10 10 15 -3 5 2 9 10 9 8 0 17 -4 20 -9z
m566 -16 c20 -24 5 -28 -21 -6 -19 16 -20 20 -8 21 9 0 22 -7 29 -15z m470 5
c0 -5 -7 -10 -16 -10 -8 0 -12 -4 -9 -10 3 -5 1 -10 -4 -10 -13 0 -13 3 -5 24
7 17 34 22 34 6z m-1188 -12 c10 0 21 -4 24 -10 5 -7 1 -9 -9 -5 -13 5 -16 0
-14 -27 3 -33 -16 -65 -28 -46 -3 6 -1 10 4 10 6 0 11 7 11 16 0 14 -3 14 -15
4 -10 -9 -15 -9 -15 -1 0 15 -33 14 -48 -1 -10 -10 -15 -10 -22 2 -7 11 -4 18
13 25 12 5 28 18 36 28 8 12 19 16 30 11 9 -4 24 -6 33 -6z m536 0 c9 -9 12
-9 12 0 0 7 5 12 12 12 6 0 8 -3 5 -7 -4 -3 -1 -13 6 -22 10 -14 10 -14 -4 -4
-12 10 -18 10 -27 1 -9 -9 -12 -8 -12 6 0 9 -4 14 -10 11 -5 -3 -10 -1 -10 4
0 14 13 14 28 -1z m222 2 c0 -5 -4 -10 -10 -10 -5 0 -10 5 -10 10 0 6 5 10 10
10 6 0 10 -4 10 -10z m641 -7 c13 -16 12 -17 -3 -4 -10 7 -18 15 -18 17 0 8 8
3 21 -13z m689 2 c-10 -13 -9 -15 10 -15 19 0 20 -2 10 -15 -11 -13 -16 -13
-41 2 l-29 17 28 12 c36 16 36 16 22 -1z m840 5 c0 -5 -5 -10 -11 -10 -5 0 -7
5 -4 10 3 6 8 10 11 10 2 0 4 -4 4 -10z m-2632 -12 c-6 -18 -28 -21 -28 -4 0
9 7 16 16 16 9 0 14 -5 12 -12z m120 -5 c-10 -3 -15 -10 -11 -19 3 -8 0 -14
-6 -14 -6 0 -11 5 -11 11 0 7 -7 17 -16 24 -13 9 -9 10 22 6 22 -2 31 -6 22
-8z m567 8 c3 -5 1 -12 -5 -16 -5 -3 -10 1 -10 9 0 18 6 21 15 7z m118 -51 c9
0 8 -3 -2 -9 -17 -11 -51 -2 -51 13 0 6 -5 4 -10 -4 -5 -8 -10 -10 -10 -4 0 5
5 15 11 21 8 8 8 13 0 17 -6 4 -11 12 -11 18 0 6 14 -3 30 -21 17 -17 36 -31
43 -31z m-843 39 c0 -7 -9 -9 -24 -5 -17 4 -26 1 -30 -10 -4 -11 -12 -14 -24
-9 -30 12 -82 16 -82 6 0 -5 6 -11 12 -13 7 -3 3 -7 -9 -10 -15 -4 -23 0 -26
13 -7 24 8 28 156 37 15 1 27 -3 27 -9z m413 5 c-7 -3 -9 -13 -6 -22 5 -13 3
-14 -7 -5 -14 13 -5 33 13 32 9 0 9 -2 0 -5z m267 -4 c0 -5 -7 -10 -16 -10 -8
0 -12 5 -9 10 3 6 10 10 16 10 5 0 9 -4 9 -10z m76 -27 c-11 -11 -19 6 -11 24
8 17 8 17 12 0 3 -10 2 -21 -1 -24z m834 27 c0 -5 -5 -10 -11 -10 -5 0 -7 5
-4 10 3 6 8 10 11 10 2 0 4 -4 4 -10z m70 -2 c0 -4 -5 -8 -11 -8 -6 0 -9 -6
-6 -14 3 -8 -2 -21 -12 -30 -22 -20 -32 -20 -25 -1 4 10 0 15 -11 15 -9 0 -13
5 -10 10 4 6 13 7 24 1 13 -7 18 -6 18 5 0 7 -6 14 -14 14 -7 0 -13 4 -13 8 0
5 14 9 30 9 17 0 30 -4 30 -9z m-1308 -33 c3 -14 2 -25 -2 -25 -9 0 -20 25
-20 46 0 23 17 7 22 -21z m95 20 c0 -8 -4 -15 -8 -15 -11 0 -20 16 -12 24 11
11 20 7 20 -9z m178 5 c3 -5 -1 -10 -9 -10 -9 0 -16 5 -16 10 0 6 4 10 9 10 6
0 13 -4 16 -10z m391 -1 c3 -6 2 -15 -4 -21 -6 -6 -11 -2 -15 11 -5 22 7 29
19 10z m210 3 c19 -13 25 -42 8 -42 -11 0 -14 5 -10 16 4 11 2 15 -7 11 -8 -3
-14 1 -14 9 0 16 7 17 23 6z m459 -2 c-3 -5 -1 -10 6 -10 7 0 10 -3 6 -6 -9
-9 -28 6 -22 17 4 5 8 9 11 9 3 0 2 -4 -1 -10z m1103 0 c23 0 3 -17 -30 -25
-24 -6 -26 -4 -21 15 4 13 11 19 20 16 8 -3 22 -6 31 -6z m-2525 -6 c3 -4 0
-13 -8 -20 -18 -18 -31 -18 -16 -1 6 8 8 17 4 20 -3 4 -2 7 4 7 5 0 12 -3 16
-6z m899 -1 c-6 -3 -10 -9 -7 -14 4 -5 -1 -6 -9 -3 -9 3 -16 1 -16 -5 0 -7 8
-15 18 -18 9 -4 19 -9 22 -12 3 -3 13 -10 23 -16 10 -5 17 -13 15 -16 -7 -12
24 -38 40 -33 14 5 14 4 -1 -6 -20 -13 -47 2 -47 25 0 8 -13 16 -30 20 -16 4
-32 15 -35 25 -3 11 -9 19 -13 19 -19 -3 -20 3 -6 19 8 10 25 18 37 19 12 0
16 -1 9 -4z m123 -22 c-6 -5 -25 10 -25 20 0 5 6 4 14 -3 8 -7 12 -15 11 -17z
m155 8 c0 -6 -4 -7 -10 -4 -5 3 -10 11 -10 16 0 6 5 7 10 4 6 -3 10 -11 10
-16z m365 -1 c7 -7 2 -9 -15 -4 -14 3 -31 6 -38 6 -7 0 -10 5 -7 10 7 12 44 4
60 -12z m240 12 c-3 -5 -12 -10 -18 -10 -7 0 -6 4 3 10 19 12 23 12 15 0z m65
0 c0 -5 -9 -10 -19 -10 -11 0 -23 5 -26 10 -4 6 5 10 19 10 14 0 26 -4 26 -10z
m515 0 c3 -5 1 -10 -4 -10 -6 0 -11 5 -11 10 0 6 2 10 4 10 3 0 8 -4 11 -10z
m-2435 -20 c0 -19 -18 -19 -23 -1 -3 14 -1 18 9 14 8 -3 14 -9 14 -13z m30 10
c0 -5 -5 -10 -11 -10 -5 0 -7 5 -4 10 3 6 8 10 11 10 2 0 4 -4 4 -10z m95 0
c-3 -5 -14 -10 -23 -10 -15 0 -15 2 -2 10 20 13 33 13 25 0z m205 -5 c11 -13
10 -14 -4 -9 -9 3 -16 10 -16 15 0 13 6 11 20 -6z m205 5 c3 -5 2 -10 -4 -10
-5 0 -13 5 -16 10 -3 6 -2 10 4 10 5 0 13 -4 16 -10z m235 0 c0 -5 -5 -10 -11
-10 -5 0 -7 5 -4 10 3 6 8 10 11 10 2 0 4 -4 4 -10z m605 1 c-3 -6 3 -15 12
-21 17 -11 17 -11 0 -6 -10 3 -23 6 -28 6 -4 0 -6 7 -3 15 4 8 10 15 16 15 5
0 7 -4 3 -9z m1030 -2 c12 -18 0 -20 -41 -5 l-39 15 37 0 c20 1 40 -4 43 -10z
m-3176 -29 c5 -17 10 -34 10 -38 0 -4 22 -12 48 -18 l48 -12 -49 1 c-40 1 -50
5 -57 24 -5 13 -13 23 -18 23 -6 0 -8 7 -5 15 8 19 -10 19 -26 0 -10 -12 -8
-16 11 -24 17 -7 19 -10 7 -10 -9 -1 -24 8 -32 20 -8 12 -19 19 -24 16 -5 -4
-9 1 -9 9 0 11 7 14 23 10 13 -4 26 -2 29 4 12 19 33 10 44 -20z m1224 13 c-4
-10 -9 -11 -19 -2 -18 15 -18 15 5 15 11 0 17 -5 14 -13z m884 -3 c1 -11 -2
-20 -5 -20 -4 0 -8 9 -9 20 -1 11 2 20 5 20 4 0 8 -9 9 -20z m492 -1 c16 -15
25 -18 30 -11 4 7 21 10 39 8 23 -3 32 -1 32 10 0 12 3 12 14 2 18 -17 17 -17
-40 -32 -27 -7 -60 -16 -73 -21 -16 -5 -21 -4 -17 4 4 6 0 14 -9 17 -13 6 -14
8 -3 15 11 7 10 11 -2 19 -8 5 -10 10 -4 10 5 0 21 -10 33 -21z m484 14 c-31
-12 -8 -20 52 -18 39 1 62 -2 58 -8 -3 -5 -24 -7 -46 -4 -22 3 -51 1 -64 -4
-16 -6 -22 -6 -18 1 13 21 -26 21 -58 1 -36 -22 -77 -28 -77 -11 0 6 8 10 18
11 9 0 42 9 72 19 49 17 95 26 63 13z m211 -2 c3 -5 -14 -15 -39 -23 -48 -16
-59 -9 -23 16 25 18 54 21 62 7z m146 0 c0 -5 -10 -7 -22 -3 -16 4 -20 1 -16
-9 4 -11 -6 -14 -41 -16 -25 -1 -38 1 -28 4 10 2 30 11 45 19 31 16 62 18 62
5z m-3558 -19 c-7 -2 -10 -8 -7 -12 3 -5 1 -11 -5 -15 -6 -4 -10 5 -10 19 0
20 4 24 17 19 11 -4 13 -8 5 -11z m682 3 c4 -11 -2 -15 -22 -14 -17 1 -20 3
-9 6 9 2 15 9 12 14 -4 5 -2 9 3 9 6 0 12 -7 16 -15z m91 5 c-3 -5 -14 -10
-23 -10 -15 0 -15 2 -2 10 20 13 33 13 25 0z m55 0 c-8 -5 -19 -10 -25 -10 -5
0 -3 5 5 10 8 5 20 10 25 10 6 0 3 -5 -5 -10z m275 0 c3 -5 1 -10 -4 -10 -6 0
-11 5 -11 10 0 6 2 10 4 10 3 0 8 -4 11 -10z m80 0 c3 -5 1 -10 -4 -10 -6 0
-11 5 -11 10 0 6 2 10 4 10 3 0 8 -4 11 -10z m215 0 c0 -5 -2 -10 -4 -10 -3 0
-8 5 -11 10 -3 6 -1 10 4 10 6 0 11 -4 11 -10z m366 -11 l19 -22 -32 17 c-35
18 -41 26 -20 26 8 0 22 -10 33 -21z m415 4 c7 -10 10 -15 5 -11 -5 4 -17 3
-28 -3 -17 -9 -18 -8 -6 10 15 25 13 25 29 4z m219 13 c0 -11 -19 -15 -25 -6
-3 5 1 10 9 10 9 0 16 -2 16 -4z m160 -6 c0 -13 -11 -13 -30 0 -12 8 -11 10 8
10 12 0 22 -4 22 -10z m320 6 c0 -3 -4 -8 -10 -11 -5 -3 -10 -1 -10 4 0 6 5
11 10 11 6 0 10 -2 10 -4z m130 -21 c-11 -13 -15 -13 -21 -3 -5 8 -2 15 9 19
23 9 27 3 12 -16z m87 19 c-3 -3 -12 -4 -19 -1 -8 3 -5 6 6 6 11 1 17 -2 13
-5z m-2696 -30 c7 -21 7 -21 -22 -7 -16 8 -26 19 -23 24 10 16 36 6 45 -17z
m175 14 c-18 -10 -19 -11 -1 -24 16 -12 16 -14 1 -30 -14 -13 -20 -14 -29 -4
-9 10 -9 11 0 6 6 -3 14 -2 18 4 3 6 -1 13 -10 16 -14 6 -14 8 1 25 9 11 22
19 28 19 6 0 2 -6 -8 -12z m371 -14 c-7 -7 -37 7 -37 17 0 6 9 5 21 -1 11 -7
19 -14 16 -16z m43 22 c0 -3 -4 -8 -10 -11 -5 -3 -10 -1 -10 4 0 6 5 11 10 11
6 0 10 -2 10 -4z m1025 -6 c3 -5 1 -10 -4 -10 -6 0 -11 5 -11 10 0 6 2 10 4
10 3 0 8 -4 11 -10z m-1391 -15 c-7 -17 -20 -20 -29 -6 -3 5 3 12 12 14 10 3
19 5 20 6 1 0 0 -6 -3 -14z m101 -4 c-3 -6 -11 -11 -16 -11 -5 0 -4 6 3 14 14
16 24 13 13 -3z m130 9 c3 -5 1 -10 -4 -10 -6 0 -11 5 -11 10 0 6 2 10 4 10 3
0 8 -4 11 -10z m825 6 c0 -3 -4 -8 -10 -11 -5 -3 -10 -1 -10 4 0 6 5 11 10 11
6 0 10 -2 10 -4z m814 -20 c-3 -9 -12 -16 -20 -16 -11 0 -10 4 4 18 20 22 25
21 16 -2z m-1990 4 c-12 -5 -25 -13 -29 -19 -3 -6 -14 -11 -23 -10 -12 0 -13
2 -3 6 11 5 11 7 0 15 -10 6 -7 7 9 3 13 -4 22 -2 22 4 0 6 10 11 23 10 l22 0
-21 -9z m1210 -5 c-4 -8 -11 -15 -16 -15 -6 0 -5 6 2 15 7 8 14 15 16 15 2 0
1 -7 -2 -15z m684 8 c-9 -2 -16 -10 -14 -16 1 -7 1 -9 -1 -4 -3 4 -16 7 -29 7
-41 0 -19 15 23 16 21 1 30 -1 21 -3z m146 -2 c4 -5 -1 -8 -9 -7 -21 3 -31 16
-12 16 9 0 18 -4 21 -9z m436 -1 c0 -5 -5 -10 -11 -10 -5 0 -7 5 -4 10 3 6 8
10 11 10 2 0 4 -4 4 -10z m258 -8 c-16 -2 -28 -8 -28 -13 0 -5 -6 -9 -12 -9
-7 1 -3 9 10 20 14 12 29 16 40 12 13 -5 11 -8 -10 -10z m192 8 c0 -5 -4 -10
-9 -10 -6 0 -13 5 -16 10 -3 6 1 10 9 10 9 0 16 -4 16 -10z m145 0 c3 -5 1
-10 -4 -10 -6 0 -11 5 -11 10 0 6 2 10 4 10 3 0 8 -4 11 -10z m-3554 -13 c-6
-8 -8 -17 -4 -20 3 -4 1 -7 -5 -7 -7 0 -12 -4 -12 -10 0 -5 8 -7 18 -4 14 5
15 4 2 -5 -25 -18 -40 -13 -38 13 1 14 5 23 9 20 4 -2 12 3 19 11 7 8 15 15
17 15 3 0 0 -6 -6 -13z m1024 3 c3 -5 1 -10 -4 -10 -6 0 -11 5 -11 10 0 6 2
10 4 10 3 0 8 -4 11 -10z m359 -1 c-3 -5 -14 -9 -25 -9 -10 0 -19 4 -19 9 0 5
11 9 25 9 13 0 22 -4 19 -9z m401 1 c-3 -5 -11 -10 -16 -10 -6 0 -7 5 -4 10 3
6 11 10 16 10 6 0 7 -4 4 -10z m453 -19 c35 -31 45 -76 15 -64 -12 5 -13 8 -4
11 8 3 0 18 -25 43 -44 45 -34 52 14 10z m374 17 c4 -10 10 -10 32 0 22 10 27
10 23 0 -5 -17 -117 -13 -117 3 0 14 58 11 62 -3z m228 2 c-8 -5 -19 -10 -25
-10 -5 0 -3 5 5 10 8 5 20 10 25 10 6 0 3 -5 -5 -10z m180 0 c0 -5 -5 -10 -11
-10 -5 0 -7 5 -4 10 3 6 8 10 11 10 2 0 4 -4 4 -10z m346 -8 c-7 -12 -53 -21
-61 -13 -6 6 57 31 64 25 1 -1 0 -7 -3 -12z m154 -2 c-24 -15 -36 -11 -14 4
10 8 21 12 24 10 2 -3 -2 -9 -10 -14z m-3170 6 c0 -2 -7 -7 -16 -10 -8 -3 -12
-2 -9 4 6 10 25 14 25 6z m610 0 c0 -2 -7 -7 -16 -10 -8 -3 -12 -2 -9 4 6 10
25 14 25 6z m1085 -6 c3 -5 1 -10 -4 -10 -6 0 -11 5 -11 10 0 6 2 10 4 10 3 0
8 -4 11 -10z m148 -20 c10 -17 13 -30 8 -30 -6 0 -11 4 -11 10 0 5 -10 18 -22
30 -16 14 -18 20 -7 20 8 0 23 -13 32 -30z m710 23 c-7 -2 -19 -2 -25 0 -7 3
-2 5 12 5 14 0 19 -2 13 -5z m-2857 -15 c4 -7 3 -8 -4 -4 -7 4 -12 2 -12 -5 0
-7 -3 -10 -6 -6 -6 5 3 27 11 27 2 0 7 -5 11 -12z m1409 2 c3 -6 -1 -7 -9 -4
-18 7 -21 14 -7 14 6 0 13 -4 16 -10z m640 0 c3 -5 -1 -10 -10 -10 -9 0 -13 5
-10 10 3 6 8 10 10 10 2 0 7 -4 10 -10z m200 0 c3 -6 -1 -7 -9 -4 -18 7 -21
14 -7 14 6 0 13 -4 16 -10z m122 -9 c0 -11 -6 -17 -14 -14 -16 6 -17 20 0 26
6 3 13 6 14 6 1 1 1 -8 0 -18z m713 12 c0 -5 -11 -13 -25 -20 -14 -6 -25 -8
-25 -4 0 5 10 13 23 19 28 14 27 13 27 5z m-2060 -13 c0 -5 -2 -10 -4 -10 -3
0 -8 5 -11 10 -3 6 -1 10 4 10 6 0 11 -4 11 -10z m690 1 c0 -5 -7 -14 -15 -21
-10 -9 -15 -9 -15 -1 0 6 5 11 11 11 5 0 7 5 4 10 -3 6 -1 10 4 10 6 0 11 -4
11 -9z m709 2 c12 10 14 9 8 -5 -3 -10 -2 -18 3 -18 6 0 10 -5 10 -12 0 -9 -3
-9 -12 0 -7 7 -19 12 -27 12 -13 0 -13 -2 -3 -9 11 -7 11 -9 -1 -14 -12 -4
-15 1 -15 24 1 20 4 27 11 20 7 -7 15 -7 26 2z m111 3 c0 -3 -4 -8 -10 -11 -5
-3 -10 -1 -10 4 0 6 5 11 10 11 6 0 10 -2 10 -4z m450 0 c0 -3 -4 -8 -10 -11
-5 -3 -10 -1 -10 4 0 6 5 11 10 11 6 0 10 -2 10 -4z m395 -6 c-3 -5 -10 -10
-16 -10 -5 0 -9 5 -9 10 0 6 7 10 16 10 8 0 12 -4 9 -10z m-235 -4 c0 -2 -7
-7 -16 -10 -8 -3 -12 -2 -9 4 6 10 25 14 25 6z m78 -9 c-16 -6 -30 -18 -33
-27 -6 -18 -65 -23 -65 -6 0 5 -10 0 -23 -12 -13 -12 -29 -22 -35 -22 -7 0
-12 -4 -12 -10 0 -5 -15 -10 -32 -10 l-33 1 35 16 c19 9 41 16 48 17 7 1 16 7
20 13 5 7 35 21 67 32 63 21 110 27 63 8z m-1153 -7 c3 -6 -1 -7 -9 -4 -18 7
-21 14 -7 14 6 0 13 -4 16 -10z m50 -8 c-3 -3 -11 0 -18 7 -9 10 -8 11 6 5 10
-3 15 -9 12 -12z m745 -30 c0 -9 -6 -8 -25 5 -37 27 -41 48 -5 26 17 -9 30
-23 30 -31z m550 38 c0 -5 -12 -10 -27 -10 -22 0 -25 2 -13 10 20 13 40 13 40
0z m30 -5 c-7 -9 -15 -13 -19 -10 -3 3 1 10 9 15 21 14 24 12 10 -5z m-3880
-5 c0 -5 -4 -10 -10 -10 -5 0 -10 5 -10 10 0 6 5 10 10 10 6 0 10 -4 10 -10z
m475 -12 c6 -4 2 -8 -7 -8 -10 0 -18 7 -18 17 0 9 3 12 8 7 4 -5 12 -12 17
-16z m115 12 c0 -5 -6 -10 -12 -10 -7 0 -24 -3 -38 -5 -22 -5 -21 -3 5 9 36
18 45 19 45 6z m40 6 c0 -3 -4 -8 -10 -11 -5 -3 -10 -1 -10 4 0 6 5 11 10 11
6 0 10 -2 10 -4z m910 -6 c0 -5 -5 -10 -11 -10 -5 0 -7 5 -4 10 3 6 8 10 11
10 2 0 4 -4 4 -10z m1870 0 c0 -5 -7 -10 -16 -10 -8 0 -12 5 -9 10 3 6 10 10
16 10 5 0 9 -4 9 -10z m370 -10 c-6 -11 -18 -20 -27 -20 -14 0 -14 3 3 19 25
26 37 26 24 1z m-3745 0 c-3 -5 -10 -10 -16 -10 -5 0 -9 5 -9 10 0 6 7 10 16
10 8 0 12 -4 9 -10z m678 3 c-7 -2 -19 -2 -25 0 -7 3 -2 5 12 5 14 0 19 -2 13
-5z m1667 -5 c0 -4 -6 -8 -14 -8 -8 0 -16 -6 -19 -12 -3 -7 -5 -4 -4 7 1 13 8
21 19 21 10 0 18 -4 18 -8z m729 -2 c-12 -10 -49 -16 -49 -7 0 5 10 11 23 13
22 4 34 1 26 -6z m129 -2 c12 -8 22 -19 22 -23 0 -11 -59 -36 -66 -29 -3 3 7
9 21 12 14 4 23 11 20 16 -3 5 -12 7 -19 4 -8 -3 -17 -1 -21 5 -4 7 1 8 12 4
16 -6 16 -5 4 10 -17 21 -3 22 27 1z m567 -32 c-8 -8 -25 10 -19 20 4 6 9 5
15 -3 4 -7 6 -15 4 -17z m-3155 -7 c14 -19 14 -19 -2 -6 -10 7 -18 18 -18 24
0 6 1 8 3 6 1 -2 9 -13 17 -24z m2255 14 c4 -6 4 -13 0 -17 -3 -3 -10 0 -15 7
-4 8 -15 11 -25 8 -9 -4 -14 -3 -10 3 8 13 42 13 50 -1z m222 -6 c0 -21 -25
-48 -35 -39 -3 4 -1 11 6 15 7 4 12 12 11 17 -3 15 1 24 9 24 5 0 9 -8 9 -17z
m583 7 c-20 -13 -53 -13 -45 0 3 6 18 10 33 10 21 0 24 -2 12 -10z m-1113 -32
c-15 -9 -19 -4 -11 16 5 14 9 15 15 5 5 -8 3 -17 -4 -21z m58 22 c-3 -5 -11
-10 -16 -10 -6 0 -7 5 -4 10 3 6 11 10 16 10 6 0 7 -4 4 -10z m330 -8 c-3 -3
-11 0 -18 7 -9 10 -8 11 6 5 10 -3 15 -9 12 -12z m575 8 c0 -5 -5 -10 -11 -10
-5 0 -7 5 -4 10 3 6 8 10 11 10 2 0 4 -4 4 -10z m-3540 -15 c-7 -9 -15 -13
-17 -11 -7 7 7 26 19 26 6 0 6 -6 -2 -15z m2328 -2 c-3 -19 -30 -55 -36 -49
-4 5 27 66 34 66 3 0 4 -8 2 -17z m115 11 c6 -6 -19 -64 -28 -64 -2 0 -7 5
-11 12 -5 7 -3 8 6 3 8 -5 11 -3 8 6 -3 8 2 20 11 27 14 12 14 13 -2 8 -11 -3
-16 -2 -12 4 7 11 19 13 28 4z m1311 -16 c-4 -13 -11 -26 -16 -29 -14 -9 9
-22 27 -15 9 3 12 0 9 -9 -3 -7 -25 -19 -49 -26 -24 -7 -42 -16 -39 -20 2 -4
-3 -10 -12 -13 -8 -3 -12 -2 -9 4 8 12 -1 13 -23 1 -27 -13 -92 -21 -92 -10 0
5 9 9 21 9 11 0 42 9 68 21 26 11 52 19 57 18 5 -1 18 -1 29 0 15 1 16 4 7 13
-7 7 -12 20 -12 29 0 13 -8 17 -30 17 -16 -1 -27 -4 -25 -9 6 -9 -54 -23 -62
-15 -4 3 1 6 10 6 9 0 20 8 26 17 7 13 20 17 48 15 21 -1 45 2 53 8 21 14 22
13 14 -12z m106 18 c0 -2 -7 -6 -15 -10 -8 -3 -15 -1 -15 4 0 6 7 10 15 10 8
0 15 -2 15 -4z m-1017 -26 c-5 -19 -23 -29 -23 -12 0 7 20 32 26 32 1 0 0 -9
-3 -20z m190 7 c3 -9 -6 -13 -31 -14 -36 -1 -36 -1 -12 13 31 17 37 17 43 1z
m-143 -1 c0 -3 -4 -8 -10 -11 -5 -3 -10 -1 -10 4 0 6 5 11 10 11 6 0 10 -2 10
-4z m250 -6 c0 -5 -5 -10 -11 -10 -5 0 -7 5 -4 10 3 6 8 10 11 10 2 0 4 -4 4
-10z m467 4 c-3 -3 -12 -4 -19 -1 -8 3 -5 6 6 6 11 1 17 -2 13 -5z m348 -4
c-3 -5 8 -18 24 -28 l31 -19 -23 -21 c-13 -12 -32 -22 -43 -22 -10 0 -25 -4
-33 -9 -16 -10 -53 -2 -45 10 3 5 16 9 30 9 14 0 22 4 19 10 -3 6 -17 10 -31
10 -14 0 -22 4 -19 10 8 14 42 13 47 -2 3 -7 14 -9 33 -4 26 7 27 8 11 24 -15
15 -18 15 -26 2 -6 -9 -10 -10 -10 -3 0 20 -38 25 -62 9 -22 -16 -78 -23 -64
-9 25 26 175 56 161 33z m-3590 -10 c-8 -13 1 -13 26 0 10 6 19 8 19 6 0 -12
-40 -25 -55 -20 -13 6 -14 8 -3 15 17 11 20 11 13 -1z m3195 6 c0 -2 -11 -6
-25 -8 -13 -3 -22 -1 -19 3 5 9 44 13 44 5z m-880 -16 c0 -5 -4 -10 -10 -10
-5 0 -10 5 -10 10 0 6 5 10 10 10 6 0 10 -4 10 -10z m672 -2 c-29 -14 -25 -40
8 -49 21 -6 19 -7 -14 -8 -36 -1 -38 0 -32 24 7 26 0 31 -23 16 -8 -5 -12 -18
-9 -29 5 -17 -2 -23 -36 -35 -24 -8 -49 -11 -61 -6 -17 6 -16 8 8 8 37 1 67
18 67 37 0 24 24 42 61 47 54 6 55 6 31 -5z m108 -3 c9 5 11 4 6 -3 -11 -18
-36 -14 -36 6 0 13 2 14 9 3 5 -8 14 -10 21 -6z m-2683 -1 c-3 -3 -12 -4 -19
-1 -8 3 -5 6 6 6 11 1 17 -2 13 -5z m947 -6 c-3 -5 7 -8 22 -8 33 0 29 -5 -9
-14 -19 -4 -26 -3 -22 4 9 14 -8 13 -23 -2 -9 -9 -12 -9 -12 0 0 7 -14 12 -32
13 -24 0 -28 2 -15 7 24 10 97 9 91 0z m266 2 c0 -5 -4 -10 -9 -10 -6 0 -13 5
-16 10 -3 6 1 10 9 10 9 0 16 -4 16 -10z m1197 4 c-3 -3 -12 -4 -19 -1 -8 3
-5 6 6 6 11 1 17 -2 13 -5z m-2714 -11 c-7 -2 -19 -2 -25 0 -7 3 -2 5 12 5 14
0 19 -2 13 -5z m1772 -3 c-3 -5 -11 -10 -16 -10 -6 0 -7 5 -4 10 3 6 11 10 16
10 6 0 7 -4 4 -10z m902 4 c-3 -3 -12 -4 -19 -1 -8 3 -5 6 6 6 11 1 17 -2 13
-5z m359 -9 c-11 -8 -22 -12 -25 -9 -6 6 19 24 34 24 6 -1 1 -7 -9 -15z m204
11 c0 -11 -19 -15 -25 -6 -3 5 1 10 9 10 9 0 16 -2 16 -4z m-2770 -10 c0 -2
-7 -7 -16 -10 -8 -3 -12 -2 -9 4 6 10 25 14 25 6z m120 -6 c0 -5 -5 -10 -11
-10 -5 0 -7 5 -4 10 3 6 8 10 11 10 2 0 4 -4 4 -10z m160 6 c0 -3 -4 -8 -10
-11 -5 -3 -10 -1 -10 4 0 6 5 11 10 11 6 0 10 -2 10 -4z m1660 -5 c0 -5 -7
-14 -15 -21 -16 -14 -18 -10 -9 14 6 17 24 22 24 7z m185 -11 c-27 -11 -57
-20 -65 -19 -13 0 -13 1 0 6 8 2 24 8 35 13 31 13 49 18 65 19 8 0 -7 -9 -35
-19z m185 10 c0 -14 -28 -19 -33 -6 -3 6 4 13 14 13 10 1 19 -2 19 -7z m189
-11 c20 -19 26 -20 54 -8 18 7 36 16 42 21 5 4 15 8 23 8 12 0 12 -2 1 -17
-13 -15 -11 -16 14 -9 24 6 26 5 16 -7 -9 -9 -28 -12 -63 -9 -38 4 -47 2 -41
-8 5 -9 4 -11 -3 -6 -7 4 -12 1 -12 -6 -1 -9 -4 -8 -13 3 -7 9 -28 26 -47 38
-28 17 -31 21 -14 21 11 0 30 -9 43 -21z m191 11 c0 -5 -5 -10 -11 -10 -5 0
-7 5 -4 10 3 6 8 10 11 10 2 0 4 -4 4 -10z m-3550 -9 c0 -3 -4 -13 -10 -21 -7
-12 -12 -12 -35 0 -14 7 -21 16 -16 19 13 8 61 10 61 2z m-115 -11 c3 -5 -1
-10 -10 -10 -9 0 -13 5 -10 10 3 6 8 10 10 10 2 0 7 -4 10 -10z m1225 0 c0 -5
-4 -10 -10 -10 -5 0 -10 5 -10 10 0 6 5 10 10 10 6 0 10 -4 10 -10z m250 6 c0
-3 -4 -8 -10 -11 -5 -3 -10 -1 -10 4 0 6 5 11 10 11 6 0 10 -2 10 -4z m1760
-6 c-8 -5 -22 -10 -30 -10 -13 0 -13 1 0 10 8 5 22 10 30 10 13 0 13 -1 0 -10z
m625 0 c-3 -5 -10 -10 -16 -10 -5 0 -9 5 -9 10 0 6 7 10 16 10 8 0 12 -4 9
-10z m-2278 -6 c-3 -3 -12 -4 -19 -1 -8 3 -5 6 6 6 11 1 17 -2 13 -5z m1593
-4 c0 -5 -5 -10 -11 -10 -5 0 -7 5 -4 10 3 6 8 10 11 10 2 0 4 -4 4 -10z
m-3133 -6 c-3 -3 -12 -4 -19 -1 -8 3 -5 6 6 6 11 1 17 -2 13 -5z m667 -9 c11
-8 15 -15 9 -15 -7 0 -15 5 -18 11 -4 6 -13 8 -21 5 -8 -3 -14 -1 -14 4 0 14
22 12 44 -5z m156 5 c-8 -5 -19 -10 -25 -10 -5 0 -3 5 5 10 8 5 20 10 25 10 6
0 3 -5 -5 -10z m1325 0 c-3 -5 -12 -10 -18 -10 -7 0 -6 4 3 10 19 12 23 12 15
0z m1250 0 c-7 -11 -85 -34 -92 -26 -3 2 11 8 31 11 20 4 39 11 42 16 3 5 10
9 15 9 6 0 7 -4 4 -10z m352 4 c-3 -3 -12 -4 -19 -1 -8 3 -5 6 6 6 11 1 17 -2
13 -5z m-3360 -10 c-3 -3 -12 -4 -19 -1 -8 3 -5 6 6 6 11 1 17 -2 13 -5z
m1973 -4 c0 -5 -5 -10 -11 -10 -5 0 -7 5 -4 10 3 6 8 10 11 10 2 0 4 -4 4 -10z
m140 6 c0 -2 -7 -7 -16 -10 -8 -3 -12 -2 -9 4 6 10 25 14 25 6z m65 -6 c8 -13
-5 -13 -25 0 -13 8 -13 10 2 10 9 0 20 -4 23 -10z m205 0 c-8 -5 -19 -10 -25
-10 -5 0 -3 5 5 10 8 5 20 10 25 10 6 0 3 -5 -5 -10z m170 -1 c0 -6 -7 -8 -16
-5 -9 3 -25 -1 -37 -9 -25 -17 -37 -19 -37 -5 0 6 9 10 20 10 11 0 20 5 20 10
0 6 11 10 25 10 14 0 25 -5 25 -11z m147 0 c-27 -16 -77 -29 -77 -20 0 7 54
27 80 29 11 1 10 -2 -3 -9z m-1197 -3 c0 -2 -7 -9 -15 -16 -13 -11 -14 -10 -9
4 5 14 24 23 24 12z m100 -12 c0 -8 -4 -12 -10 -9 -5 3 -10 10 -10 16 0 5 5 9
10 9 6 0 10 -7 10 -16z m654 8 c3 -5 -1 -9 -9 -9 -8 0 -15 4 -15 9 0 4 4 8 9
8 6 0 12 -4 15 -8z m1258 -4 c17 6 34 9 37 7 9 -10 -8 -16 -50 -18 -24 -1 -49
-8 -55 -16 -6 -8 -18 -12 -27 -8 -9 3 -18 -1 -21 -9 -3 -9 -10 -13 -15 -9 -5
3 -12 1 -16 -5 -3 -5 -16 -9 -28 -9 -17 1 -18 2 -4 6 9 2 14 9 11 15 -4 7 -2
8 4 4 7 -4 12 -2 12 3 0 6 -6 11 -12 12 -15 0 15 13 55 23 18 4 26 3 23 -3 -4
-5 -2 -12 4 -16 9 -6 14 8 11 28 -1 4 8 2 19 -5 15 -10 26 -10 52 0z m-1967
-19 c-10 -15 -25 -10 -19 6 4 8 10 12 15 9 5 -3 7 -10 4 -15z m525 11 c0 -5
-5 -10 -10 -10 -6 0 -23 -11 -38 -25 -15 -14 -31 -25 -37 -25 -5 0 -1 7 9 15
11 8 16 15 10 15 -10 0 46 38 59 39 4 1 7 -3 7 -9z m35 -26 c-32 -26 -45 -30
-45 -14 0 6 7 10 15 10 8 0 23 9 32 20 9 11 19 17 22 14 4 -3 -7 -17 -24 -30z
m620 26 c-3 -5 -13 -10 -21 -10 -8 0 -12 5 -9 10 3 6 13 10 21 10 8 0 12 -4 9
-10z m169 2 c3 -5 -1 -9 -9 -9 -8 0 -12 4 -9 9 3 4 7 8 9 8 2 0 6 -4 9 -8z
m-954 -12 c0 -5 -5 -10 -11 -10 -5 0 -7 5 -4 10 3 6 8 10 11 10 2 0 4 -4 4
-10z m1176 -7 c-15 -8 -35 -11 -44 -8 -15 6 -15 8 3 15 11 4 31 7 44 7 25 0
25 0 -3 -14z m114 7 c-8 -5 -22 -10 -30 -10 -13 0 -13 1 0 10 8 5 22 10 30 10
13 0 13 -1 0 -10z m-2780 -10 c0 -5 -5 -10 -11 -10 -5 0 -7 5 -4 10 3 6 8 10
11 10 2 0 4 -4 4 -10z m690 0 c0 -5 -5 -10 -11 -10 -5 0 -7 5 -4 10 3 6 8 10
11 10 2 0 4 -4 4 -10z m174 -9 c-22 -21 -27 -21 -18 3 3 9 13 16 22 16 13 0
12 -3 -4 -19z m536 15 c0 -2 -7 -9 -15 -16 -13 -11 -14 -10 -9 4 5 14 24 23
24 12z m375 -6 c-3 -5 -11 -10 -16 -10 -6 0 -7 5 -4 10 3 6 11 10 16 10 6 0 7
-4 4 -10z m175 0 c-20 -13 -33 -13 -25 0 3 6 14 10 23 10 15 0 15 -2 2 -10z
m195 0 c-27 -12 -35 -12 -35 0 0 6 12 10 28 9 24 0 25 -1 7 -9z m-2340 -30
c-10 -11 -28 -20 -39 -19 -13 0 -16 3 -7 6 7 3 22 14 33 25 25 25 37 15 13
-12z m625 20 c0 -5 -5 -10 -11 -10 -5 0 -7 5 -4 10 3 6 8 10 11 10 2 0 4 -4 4
-10z m1275 0 c3 -5 2 -10 -4 -10 -5 0 -13 5 -16 10 -3 6 -2 10 4 10 5 0 13 -4
16 -10z m391 1 c-7 -11 -56 -21 -56 -11 0 13 13 20 37 20 13 0 22 -4 19 -9z
m300 -17 c-11 -8 -28 -14 -37 -14 -10 0 -21 -4 -24 -10 -3 -5 -20 -10 -36 -10
-41 0 -28 17 19 25 20 3 48 12 62 20 31 16 42 9 16 -11z m74 22 c0 -9 -30 -14
-35 -6 -4 6 3 10 14 10 12 0 21 -2 21 -4z m125 -4 c-6 -5 -39 -19 -75 -32 -36
-12 -76 -34 -89 -49 -13 -15 -21 -19 -18 -10 9 26 -43 9 -62 -21 -15 -23 -15
-24 4 -16 41 16 49 16 15 0 -72 -35 -80 -37 -87 -29 -5 4 -2 10 6 13 8 2 28
18 45 35 43 41 73 60 86 52 5 -3 10 1 10 10 0 13 6 16 24 11 15 -4 28 0 36 9
7 8 24 15 39 15 14 0 33 5 41 10 19 12 38 13 25 2z m135 -1 c0 -12 -50 -44
-57 -37 -3 3 2 8 11 12 9 3 16 12 16 20 0 8 7 14 15 14 8 0 15 -4 15 -9z m131
-10 c-6 -10 -8 -21 -4 -24 3 -3 -2 -13 -10 -21 -12 -12 -17 -13 -20 -3 -4 9
-7 9 -18 0 -7 -7 -20 -13 -28 -13 -13 1 -13 2 2 11 27 16 20 26 -15 23 -26 -3
-24 -1 10 7 23 6 42 14 42 19 0 7 17 15 43 19 4 0 3 -7 -2 -18z m-3667 -6 c-6
-16 -24 -21 -24 -7 0 11 11 22 21 22 5 0 6 -7 3 -15z m1811 5 c-3 -5 -14 -10
-23 -10 -15 0 -15 2 -2 10 20 13 33 13 25 0z m495 5 c0 -2 -10 -10 -22 -16
-21 -11 -22 -11 -9 4 13 16 31 23 31 12z m370 -5 c0 -5 -5 -10 -11 -10 -5 0
-7 5 -4 10 3 6 8 10 11 10 2 0 4 -4 4 -10z m310 6 c0 -3 -4 -8 -10 -11 -5 -3
-10 -1 -10 4 0 6 5 11 10 11 6 0 10 -2 10 -4z m-1930 -16 c0 -5 -4 -10 -10
-10 -5 0 -10 5 -10 10 0 6 5 10 10 10 6 0 10 -4 10 -10z m657 4 c-3 -3 -12 -4
-19 -1 -8 3 -5 6 6 6 11 1 17 -2 13 -5z m338 -4 c3 -5 1 -10 -4 -10 -6 0 -11
5 -11 10 0 6 2 10 4 10 3 0 8 -4 11 -10z m165 0 c-20 -13 -33 -13 -25 0 3 6
14 10 23 10 15 0 15 -2 2 -10z m-245 -10 c-3 -5 -14 -10 -23 -10 -15 0 -15 2
-2 10 20 13 33 13 25 0z m930 0 c-11 -5 -27 -9 -35 -9 -9 0 -8 4 5 9 11 5 27
9 35 9 9 0 8 -4 -5 -9z m-2775 -10 c0 -5 -7 -10 -16 -10 -8 0 -12 5 -9 10 3 6
10 10 16 10 5 0 9 -4 9 -10z m979 -3 c11 -14 5 -27 -11 -27 -5 0 -6 5 -3 10 3
6 1 10 -4 10 -6 0 -11 5 -11 10 0 14 16 12 29 -3z m-399 -7 c0 -5 -4 -10 -9
-10 -6 0 -13 5 -16 10 -3 6 1 10 9 10 9 0 16 -4 16 -10z m755 0 c3 -5 -1 -10
-9 -10 -8 0 -18 5 -21 10 -3 6 1 10 9 10 8 0 18 -4 21 -10z m322 4 c-3 -3 -12
-4 -19 -1 -8 3 -5 6 6 6 11 1 17 -2 13 -5z m543 1 c0 -4 -67 -35 -76 -35 -2 0
-4 4 -4 8 0 4 15 13 33 19 41 13 47 14 47 8z m287 -1 c-3 -3 -12 -4 -19 -1 -8
3 -5 6 6 6 11 1 17 -2 13 -5z m930 -11 c23 -15 24 -17 7 -23 -11 -4 -19 -12
-19 -19 0 -6 -4 -10 -10 -8 -5 1 -9 7 -9 14 1 7 -11 10 -35 7 -20 -2 -27 -1
-16 3 11 3 26 14 33 24 16 23 16 23 49 2z m-3462 -2 c-6 -5 -23 -12 -40 -16
l-30 -6 30 15 c35 17 53 20 40 7z m111 -6 c4 -8 16 -16 28 -16 19 -1 19 -2 2
-6 -12 -3 -25 2 -32 12 -7 9 -17 14 -23 10 -6 -3 -11 -1 -11 4 0 17 30 13 36
-4z m174 5 c0 -5 -8 -10 -17 -10 -15 0 -16 2 -3 10 19 12 20 12 20 0z m205 4
c13 -5 14 -8 3 -15 -19 -13 -28 -11 -28 6 0 17 2 18 25 9z m737 -16 c-7 -7
-12 -8 -12 -2 0 14 12 26 19 19 2 -3 -1 -11 -7 -17z m774 7 c-11 -8 -25 -15
-30 -15 -6 1 0 7 14 15 32 19 40 18 16 0z m411 0 c0 -8 -6 -15 -13 -15 -8 0
-11 6 -8 15 4 8 9 15 13 15 4 0 8 -7 8 -15z m53 11 c0 -2 -7 -7 -16 -10 -8 -3
-12 -2 -9 4 6 10 25 14 25 6z m141 -6 c5 0 9 -4 9 -10 0 -5 -9 -10 -21 -10
-11 0 -17 4 -14 10 4 7 -3 9 -22 5 -23 -4 -24 -4 -8 4 11 5 26 8 33 5 8 -2 18
-4 23 -4z m1281 -12 c-7 -7 -12 -8 -12 -2 0 14 12 26 19 19 2 -3 -1 -11 -7
-17z m-3719 5 c-7 -2 -21 -2 -30 0 -10 3 -4 5 12 5 17 0 24 -2 18 -5z m3124 1
c-3 -3 -12 -4 -19 -1 -8 3 -5 6 6 6 11 1 17 -2 13 -5z m-2729 -18 c-7 -8 -15
-12 -17 -11 -5 6 10 25 20 25 5 0 4 -6 -3 -14z m132 4 c0 -5 -4 -10 -10 -10
-5 0 -10 5 -10 10 0 6 5 10 10 10 6 0 10 -4 10 -10z m1180 0 c-8 -5 -19 -10
-25 -10 -5 0 -3 5 5 10 8 5 20 10 25 10 6 0 3 -5 -5 -10z m237 -7 c-9 -9 -20
-13 -24 -9 -4 4 -1 11 7 16 25 16 35 11 17 -7z m368 7 c-3 -5 -11 -10 -16 -10
-6 0 -7 5 -4 10 3 6 11 10 16 10 6 0 7 -4 4 -10z m1160 -8 c-3 -3 -11 0 -18 7
-9 10 -8 11 6 5 10 -3 15 -9 12 -12z m58 12 c17 -6 12 -12 -43 -59 l-23 -20
16 26 c10 14 14 28 11 32 -7 7 4 27 16 27 4 0 15 -3 23 -6z m-1766 -10 c-3 -3
-12 -4 -19 -1 -8 3 -5 6 6 6 11 1 17 -2 13 -5z m1085 -12 c-10 -10 -26 -21
-35 -25 -16 -6 -16 -5 -1 18 9 14 25 25 35 25 18 0 18 -1 1 -18z m-3052 -2
c-8 -5 -22 -9 -30 -9 -10 0 -8 3 5 9 27 12 43 12 25 0z m430 6 c0 -3 -4 -8
-10 -11 -5 -3 -10 -1 -10 4 0 6 5 11 10 11 6 0 10 -2 10 -4z m1050 0 c0 -2 -9
-6 -20 -9 -11 -3 -18 -1 -14 4 5 9 34 13 34 5z m808 -13 c16 -16 16 -16 -1
-10 -10 4 -23 7 -28 7 -5 0 -9 5 -9 10 0 15 20 12 38 -7z m262 2 c0 -8 -4 -15
-10 -15 -5 0 -10 7 -10 15 0 8 5 15 10 15 6 0 10 -7 10 -15z m95 4 c11 -16 -2
-22 -32 -15 -21 6 -24 9 -12 17 19 12 36 11 44 -2z m1010 1 c16 -6 17 -9 5
-13 -30 -11 -100 -15 -94 -6 3 5 12 9 20 9 8 0 14 5 14 10 0 12 27 12 55 0z
m-2665 -10 c0 -5 -5 -10 -11 -10 -5 0 -7 5 -4 10 3 6 8 10 11 10 2 0 4 -4 4
-10z m710 0 c0 -5 -8 -10 -17 -10 -15 0 -16 2 -3 10 19 12 20 12 20 0z m185 0
c-3 -5 -10 -10 -16 -10 -5 0 -9 5 -9 10 0 6 7 10 16 10 8 0 12 -4 9 -10z m285
-10 c0 -21 -15 -27 -25 -10 -3 6 -1 10 5 10 6 0 8 5 5 10 -3 6 -1 10 4 10 6 0
11 -9 11 -20z m350 0 c13 -24 3 -26 -22 -3 -15 13 -18 14 -13 2 4 -11 -3 -15
-31 -17 -22 -2 -33 1 -29 8 3 5 15 10 25 10 10 0 22 5 25 10 10 17 34 11 45
-10z m870 6 c0 -8 -8 -17 -17 -20 -12 -5 -14 -9 -6 -14 6 -4 -6 -8 -28 -8 -21
-1 -39 2 -39 7 0 5 5 9 11 9 6 0 22 9 36 20 30 24 43 25 43 6z m-2650 -12 c0
-2 -9 -4 -21 -4 -11 0 -18 4 -14 10 5 8 35 3 35 -6z m333 9 c-7 -2 -19 -2 -25
0 -7 3 -2 5 12 5 14 0 19 -2 13 -5z m287 -8 c-46 -18 -61 -18 -30 0 14 8 34
14 45 14 13 0 8 -5 -15 -14z m190 0 c-7 -8 -17 -15 -23 -15 -6 0 -2 7 9 15 25
19 30 19 14 0z m1885 5 c3 -5 1 -10 -4 -10 -6 0 -11 5 -11 10 0 6 2 10 4 10 3
0 8 -4 11 -10z m-2855 -4 c0 -11 -19 -15 -25 -6 -3 5 1 10 9 10 9 0 16 -2 16
-4z m274 -11 c-4 -8 -13 -15 -21 -15 -13 0 -13 3 -3 15 7 8 16 15 21 15 5 0 6
-7 3 -15z m1086 0 c-14 -8 -32 -14 -40 -14 -8 0 -1 6 15 14 40 18 57 18 25 0z
m320 5 c0 -5 -4 -10 -10 -10 -5 0 -10 5 -10 10 0 6 5 10 10 10 6 0 10 -4 10
-10z m728 -5 c-3 -3 -23 -8 -44 -10 -38 -5 -38 -5 -6 4 18 5 36 11 39 15 4 3
9 4 11 1 3 -3 3 -7 0 -10z m896 -9 c-10 -8 -21 -12 -24 -9 -3 2 4 11 14 19 11
7 22 12 25 9 2 -3 -4 -12 -15 -19z m-3734 4 c0 -12 -28 -25 -36 -17 -9 9 6 27
22 27 8 0 14 -5 14 -10z m290 0 c0 -5 -7 -10 -16 -10 -8 0 -12 5 -9 10 3 6 10
10 16 10 5 0 9 -4 9 -10z m700 0 c0 -5 -5 -10 -11 -10 -5 0 -7 5 -4 10 3 6 8
10 11 10 2 0 4 -4 4 -10z m540 0 c0 -5 -4 -10 -10 -10 -5 0 -10 5 -10 10 0 6
5 10 10 10 6 0 10 -4 10 -10z m1095 0 c-8 -13 -35 -13 -35 0 0 6 9 10 21 10
11 0 17 -4 14 -10z m820 0 c-3 -5 -14 -10 -23 -9 -14 0 -13 2 3 9 27 11 27 11
20 0z m-1515 -10 c-20 -13 -33 -13 -25 0 3 6 14 10 23 10 15 0 15 -2 2 -10z
m133 3 c-7 -2 -19 -2 -25 0 -7 3 -2 5 12 5 14 0 19 -2 13 -5z m-1916 -9 c-3
-3 -12 -4 -19 -1 -8 3 -5 6 6 6 11 1 17 -2 13 -5z m1270 0 c-3 -3 -12 -4 -19
-1 -8 3 -5 6 6 6 11 1 17 -2 13 -5z m1136 -1 c-7 -2 -19 -2 -25 0 -7 3 -2 5
12 5 14 0 19 -2 13 -5z"/>
<path d="M1371 2505 c0 -11 4 -29 9 -40 8 -18 9 -18 9 5 0 14 -4 32 -9 40 -8
12 -10 12 -9 -5z"/>
<path d="M1500 865 c0 -51 4 -53 67 -29 40 15 57 34 33 34 -6 0 -30 9 -52 20
-23 11 -43 20 -45 20 -2 0 -3 -20 -3 -45z"/>
<path d="M1585 811 c-56 -18 -92 -37 -85 -44 3 -3 61 -8 130 -11 69 -4 142 -9
163 -13 20 -3 37 -1 37 4 0 12 -109 65 -121 58 -5 -4 -9 -1 -9 5 0 8 -9 10
-25 6 -14 -4 -25 -2 -25 4 0 12 -3 12 -65 -9z m142 -37 c-3 -3 -12 -4 -19 -1
-8 3 -5 6 6 6 11 1 17 -2 13 -5z"/>
<path d="M440 620 c19 -13 30 -13 30 0 0 6 -10 10 -22 10 -19 0 -20 -2 -8 -10z"/>
<path d="M510 610 c-16 -10 72 -10 90 1 10 5 -2 8 -31 7 -26 0 -52 -4 -59 -8z"/>
<path d="M438 593 c7 -3 16 -2 19 1 4 3 -2 6 -13 5 -11 0 -14 -3 -6 -6z"/>
<path d="M518 583 c6 -2 18 -2 25 0 6 3 1 5 -13 5 -14 0 -19 -2 -12 -5z"/>
<path d="M573 583 c4 -3 1 -13 -6 -22 -11 -14 -10 -14 6 -2 20 15 22 31 5 31
-6 0 -8 -3 -5 -7z"/>
<path d="M468 543 c7 -3 16 -2 19 1 4 3 -2 6 -13 5 -11 0 -14 -3 -6 -6z"/>
<path d="M622 503 c-10 -4 -9 -8 5 -19 26 -19 42 -17 40 6 -1 19 -18 24 -45
13z"/>
<path d="M2188 682 c-18 -3 -26 -32 -9 -32 10 0 36 29 30 33 -2 2 -12 2 -21
-1z"/>
<path d="M2232 670 c-12 -10 -28 -20 -35 -23 -9 -3 -9 -8 -1 -16 8 -9 14 -8
22 2 7 8 23 12 37 9 23 -4 24 -5 8 -17 -15 -11 -13 -12 15 -9 19 2 43 -3 57
-12 13 -9 26 -11 29 -6 3 6 -5 13 -19 16 -18 5 -23 11 -18 24 5 14 3 15 -8 5
-20 -20 -26 -16 -21 17 3 18 0 30 -7 30 -6 0 -11 -7 -11 -15 0 -19 -17 -20
-22 -1 -2 12 -7 11 -26 -4z"/>
<path d="M1998 673 c6 -2 18 -2 25 0 6 3 1 5 -13 5 -14 0 -19 -2 -12 -5z"/>
<path d="M1763 608 c0 -7 14 -14 30 -15 28 -2 29 -2 11 12 -24 18 -41 19 -41
3z"/>
<path d="M3343 652 c-9 -6 -7 -12 7 -22 13 -9 18 -21 14 -36 -4 -14 0 -23 12
-28 14 -5 15 -4 4 9 -10 11 -10 18 -1 29 8 9 8 16 2 20 -6 4 -8 13 -4 21 6 16
-14 20 -34 7z"/>
<path d="M758 583 c7 -3 16 -2 19 1 4 3 -2 6 -13 5 -11 0 -14 -3 -6 -6z"/>
<path d="M805 549 c-11 -17 -2 -18 19 -3 17 12 17 14 4 14 -9 0 -20 -5 -23
-11z"/>
<path d="M369 3108 c10 -10 23 -36 30 -57 6 -21 18 -44 26 -51 19 -15 20 -1 1
25 -14 22 -30 74 -27 91 1 6 -10 12 -23 12 -24 0 -24 -1 -7 -20z"/>
<path d="M1311 2274 c0 -11 3 -14 6 -6 3 7 2 16 -1 19 -3 4 -6 -2 -5 -13z"/>
<path d="M1271 2244 c0 -11 3 -14 6 -6 3 7 2 16 -1 19 -3 4 -6 -2 -5 -13z"/>
<path d="M915 1820 c3 -5 8 -10 11 -10 2 0 4 5 4 10 0 6 -5 10 -11 10 -5 0 -7
-4 -4 -10z"/>
<path d="M1157 1709 c7 -7 15 -10 18 -7 3 3 -2 9 -12 12 -14 6 -15 5 -6 -5z"/>
<path d="M3575 1600 c-3 -5 -3 -10 1 -10 3 0 -4 -9 -17 -19 -31 -25 -20 -36
16 -17 31 16 45 56 21 56 -8 0 -18 -4 -21 -10z"/>
<path d="M3420 1527 c0 -24 25 -67 40 -67 13 0 4 34 -15 64 -21 32 -25 32 -25
3z"/>
<path d="M0 1420 c0 -5 10 -10 23 -10 18 0 19 2 7 10 -19 13 -30 13 -30 0z"/>
<path d="M0 1372 c0 -11 9 -27 20 -37 11 -10 20 -22 20 -26 0 -12 103 -109
109 -103 3 2 -1 10 -7 16 -14 14 -16 32 -2 23 6 -3 7 1 4 10 -6 13 -40 49
-119 123 -19 17 -25 15 -25 -6z"/>
<path d="M4 1278 c-8 -27 26 -58 65 -57 14 0 20 3 13 6 -7 3 -17 16 -22 28 -5
13 -18 29 -29 34 -16 9 -21 7 -27 -11z m50 -47 c-7 -7 -44 31 -38 41 3 4 14
-2 24 -14 10 -13 16 -25 14 -27z"/>
<path d="M1512 1210 c-1 -3 -4 -53 -6 -112 -4 -120 5 -136 44 -73 12 19 26 35
31 35 5 0 9 6 9 13 -1 6 -16 -5 -35 -27 l-34 -38 -4 103 c-1 57 -4 102 -5 99z"/>
<path d="M1800 1155 c0 -8 2 -15 4 -15 2 0 6 7 10 15 3 8 1 15 -4 15 -6 0 -10
-7 -10 -15z"/>
<path d="M1560 1094 c0 -8 5 -12 10 -9 6 3 10 10 10 16 0 5 -4 9 -10 9 -5 0
-10 -7 -10 -16z"/>
<path d="M1610 1094 c0 -8 5 -12 10 -9 6 3 10 10 10 16 0 5 -4 9 -10 9 -5 0
-10 -7 -10 -16z"/>
<path d="M1670 1100 c0 -5 5 -10 11 -10 5 0 7 5 4 10 -3 6 -8 10 -11 10 -2 0
-4 -4 -4 -10z"/>
<path d="M1780 1090 c0 -5 5 -10 10 -10 6 0 10 5 10 10 0 6 -4 10 -10 10 -5 0
-10 -4 -10 -10z"/>
<path d="M1655 1068 c-8 -21 -31 -24 -38 -5 -3 6 -6 0 -6 -15 -1 -28 13 -38
22 -15 3 8 9 6 20 -8 8 -11 13 -22 11 -25 -3 -2 -9 2 -14 10 -7 11 -11 11 -24
1 -25 -21 -19 -27 22 -23 33 3 37 7 36 31 0 15 -6 36 -12 46 -10 19 -11 19
-17 3z"/>
<path d="M1767 1063 c-10 -10 -8 -23 4 -23 5 0 8 4 5 9 -4 5 0 12 6 14 7 3 8
6 2 6 -6 1 -14 -2 -17 -6z"/>
<path d="M1556 1004 c-4 -10 2 -14 19 -14 30 0 33 16 6 23 -12 3 -22 -1 -25
-9z"/>
<path d="M1780 997 c0 -10 4 -17 9 -17 5 0 16 -3 25 -6 11 -4 16 -1 15 12 0
12 -3 14 -6 6 -4 -10 -9 -9 -24 4 -17 16 -19 16 -19 1z"/>
<path d="M27 783 c-11 -10 -8 -33 4 -33 5 0 7 5 4 10 -3 6 -1 10 4 10 6 0 11
-5 11 -11 0 -5 5 -7 10 -4 8 5 7 11 -1 21 -13 15 -22 18 -32 7z"/>
<path d="M138 763 c7 -3 16 -2 19 1 4 3 -2 6 -13 5 -11 0 -14 -3 -6 -6z"/>
<path d="M100 740 c-13 -8 -13 -10 2 -10 9 0 20 5 23 10 8 13 -5 13 -25 0z"/>
<path d="M190 729 c0 -5 5 -7 10 -4 6 3 10 8 10 11 0 2 -4 4 -10 4 -5 0 -10
-5 -10 -11z"/>
<path d="M50 719 c0 -5 5 -7 10 -4 6 3 10 8 10 11 0 2 -4 4 -10 4 -5 0 -10 -5
-10 -11z"/>
<path d="M150 709 c0 -5 9 -9 20 -9 11 0 20 2 20 4 0 2 -9 6 -20 9 -11 3 -20
1 -20 -4z"/>
<path d="M185 691 c-16 -4 -42 -6 -57 -6 -16 1 -28 -2 -28 -6 0 -12 55 -17 68
-6 10 8 16 7 24 -4 7 -11 11 -11 15 -1 2 6 11 12 19 12 9 0 12 5 9 10 -7 11
-7 11 -50 1z"/>
<path d="M3830 696 c0 -2 7 -9 15 -16 9 -7 15 -8 15 -2 0 5 -7 12 -15 16 -8 3
-15 4 -15 2z"/>
<path d="M5 680 c3 -5 16 -10 28 -9 21 0 21 1 2 9 -28 12 -37 12 -30 0z"/>
<path d="M60 680 c0 -5 5 -10 10 -10 6 0 10 5 10 10 0 6 -4 10 -10 10 -5 0
-10 -4 -10 -10z"/>
<path d="M3649 673 c-1 -4 -1 -11 0 -15 2 -12 -24 -9 -37 4 -9 9 -16 8 -30 -6
-16 -18 -16 -19 1 -12 13 4 17 2 14 -6 -2 -7 -16 -12 -31 -10 -14 1 -26 -1
-26 -5 0 -4 16 -9 35 -10 19 -2 35 1 35 6 0 5 11 12 24 15 26 6 41 32 26 41
-6 4 -11 3 -11 -2z"/>
<path d="M3770 669 c0 -5 4 -8 9 -4 5 3 12 1 16 -5 3 -5 12 -10 18 -10 7 0 3
7 -7 15 -23 18 -36 19 -36 4z"/>
<path d="M3948 658 c5 -5 16 -8 23 -6 8 3 3 7 -10 11 -17 4 -21 3 -13 -5z"/>
<path d="M0 650 c0 -5 5 -10 10 -10 6 0 10 5 10 10 0 6 -4 10 -10 10 -5 0 -10
-4 -10 -10z"/>
<path d="M80 642 c0 -14 6 -22 16 -22 14 0 15 3 3 18 -7 9 -15 19 -16 21 -2 2
-3 -5 -3 -17z"/>
<path d="M3492 638 c3 -7 12 -14 21 -16 12 -2 15 1 11 12 -7 19 -38 22 -32 4z"/>
<path d="M3675 641 c-3 -5 -2 -12 3 -15 5 -3 9 1 9 9 0 17 -3 19 -12 6z"/>
<path d="M40 620 c0 -5 5 -10 11 -10 5 0 7 5 4 10 -3 6 -8 10 -11 10 -2 0 -4
-4 -4 -10z"/>
<path d="M141 614 c0 -11 3 -14 6 -6 3 7 2 16 -1 19 -3 4 -6 -2 -5 -13z"/>
<path d="M4066 619 c3 -6 0 -15 -7 -20 -11 -7 -10 -9 4 -9 9 0 17 4 17 9 0 5
10 7 23 4 18 -4 16 -2 -7 11 -34 19 -40 20 -30 5z"/>
<path d="M178 603 c6 -2 18 -2 25 0 6 3 1 5 -13 5 -14 0 -19 -2 -12 -5z"/>
<path d="M165 570 c3 -5 11 -10 16 -10 6 0 7 5 4 10 -3 6 -11 10 -16 10 -6 0
-7 -4 -4 -10z"/>
<path d="M190 540 c0 -5 5 -10 10 -10 6 0 10 5 10 10 0 6 -4 10 -10 10 -5 0
-10 -4 -10 -10z"/>
<path d="M20 522 c0 -7 5 -12 11 -12 8 0 8 -5 -1 -15 -10 -13 -9 -15 9 -15 26
0 27 12 1 35 -11 10 -20 13 -20 7z"/>
<path d="M4125 510 c-3 -5 -1 -10 4 -10 6 0 11 5 11 10 0 6 -2 10 -4 10 -3 0
-8 -4 -11 -10z"/>
<path d="M110 493 c0 -17 25 -16 39 1 10 11 7 14 -14 12 -14 0 -25 -7 -25 -13z"/>
<path d="M157 483 c-4 -3 -7 -11 -7 -17 0 -6 5 -5 12 2 6 6 9 14 7 17 -3 3 -9
2 -12 -2z"/>
<path d="M69 461 c-14 -11 -20 -23 -15 -28 5 -4 11 -2 13 5 3 6 10 9 15 6 6
-4 8 -2 4 4 -3 5 0 12 6 15 7 2 10 7 7 11 -3 4 -17 -2 -30 -13z"/>
<path d="M4100 180 c-8 -4 -27 -13 -42 -19 -16 -6 -28 -15 -28 -20 0 -12 103
24 108 38 4 13 -16 14 -38 1z"/>
<path d="M4120 88 c-12 -22 -12 -22 6 -6 10 10 15 20 12 24 -4 3 -12 -5 -18
-18z"/>
<path d="M4115 49 c-11 -17 1 -21 15 -4 8 9 8 15 2 15 -6 0 -14 -5 -17 -11z"/>
<path d="M4093 20 c4 -18 47 -27 47 -10 0 7 -7 9 -17 6 -9 -4 -20 -1 -25 6 -7
10 -9 9 -5 -2z"/>
</g>
</svg>
